<svg id="Слой_1" xmlns="http://www.w3.org/2000/svg" viewBox="-456.4 267 46.9 28.7"><style>.st0{fill:none;stroke:#ce638a;stroke-miterlimit:10}.st1{fill:#ce638a}</style><path class="st0" d="M-415.7 292.1H-450c-1 0-1.8-.8-1.8-1.8v-17.8c0-1 .8-1.8 1.8-1.8h34.3c1 0 1.8.8 1.8 1.8v17.8c0 1-.8 1.8-1.8 1.8z"/><path class="st1" d="M-439.3 278.8c-.2 0-.4.1-.5.2-.1.1-.2.4-.2.7v.2l.3 4.5v.6h.7v.4h-2.2v-.3c.3 0 .4-.1.5-.2s.1-.4.1-.7v-.3l-.3-4.3s0 .1-.1.1 0 .1-.1.2l-2.2 5.6h-.3l-.6-1.2c-.5-1.1-.9-2-1.2-2.7-.3-.6-.6-1.3-.8-2.1v.4c-.1 2-.1 3.3-.1 4.2v.8h.8v.4h-1.9v-.3c.3 0 .5-.1.5-.2.1-.1.1-.4.1-.7l.2-5.4h-.7v-.4h1.5l1.4 3.1c.5 1.2.9 2 1.1 2.6.1-.2.2-.6.5-1.3.3-.6.5-1.3.9-2.1.4-.9.7-1.7 1-2.4h1.5v.6zM-433.2 280.2h-.3c0-.5-.1-.9-.4-1.1-.2-.2-.6-.3-1-.3h-.9c-.2 0-.4.1-.5.1-.1.1-.2.2-.2.4v2.3h1.9l-.1-.9h.4v2.1h-.3c0-.2 0-.4-.1-.6l-.3-.3c-.1 0-.3-.1-.5-.1h-1V284.9h1.9c.5 0 .8-.1 1.1-.4.2-.2.4-.6.4-1.2h.3l-.1 2h-5.2v-.3c.2 0 .4-.1.5-.2.1-.1.2-.2.2-.4v-5-.7h-.7v-.4h4.8l.1 1.9zM-425.2 278.8c-.2 0-.3 0-.4.1-.1.1-.2.2-.2.3v6.5h-.5l-4.3-5.8v5.3h.7v.4h-1.8v-.3c.3 0 .4-.1.5-.2.1-.2.1-.3.1-.6V279h-.7v-.4h1.2l4.3 5.7v-4.6-.7h-.7v-.4h1.8v.2zM-417.6 278.8c-.2 0-.4.1-.5.2-.1.1-.2.2-.2.4v3c0 1-.2 1.8-.6 2.4-.4.6-1.1.9-2 .9-.7 0-1.3-.1-1.7-.4s-.7-.6-.9-1.2-.3-1.2-.3-2v-2-1.2h-.7v-.4h2.2v.3c-.3 0-.5.1-.6.2s-.1.3-.1.6v2.5c0 .6.1 1.1.2 1.5.1.4.3.8.6 1 .3.3.7.4 1.3.4.7 0 1.2-.2 1.5-.7.3-.5.5-1.1.5-1.9v-2.8-.7h-.7v-.4h1.9v.3z"/></svg>