<?xml version="1.0" encoding="utf-8"?>
<!-- Generator: Adobe Illustrator 19.0.0, SVG Export Plug-In . SVG Version: 6.00 Build 0)  -->
<svg version="1.1" id="Слой_1" xmlns="http://www.w3.org/2000/svg" xmlns:xlink="http://www.w3.org/1999/xlink" x="0px" y="0px"
	 viewBox="0 0 168.5 135.5" style="enable-background:new 0 0 168.5 135.5;" xml:space="preserve">
<style type="text/css">
	.st0{fill:#96325B;}
	.st1{fill:#F0F1F1;}
	.st2{fill:#D0D2D3;}
	.st3{fill:#BBBDBF;}
	.st4{fill:#B74270;}
	.st5{fill:#D8234E;}
</style>
<g id="XMLID_14_">
	<path id="XMLID_16_" class="st0" d="M139.5,53L88.1,9.8c-3-1.1-3-1.1-6,0L30.6,53h0l-0.2,60.4l109.1,2.9L139.5,53"/>
	<polygon id="XMLID_15_" class="st0" points="139.5,53 139.5,53.1 139.5,53 	"/>
</g>
<g id="XMLID_11_">
	<polygon id="XMLID_13_" class="st1" points="40.9,2.1 40.9,120.1 129.1,120.1 129.1,21.4 109.8,2.1 	"/>
	<polygon id="XMLID_12_" class="st2" points="129.1,21.4 109.8,2.1 109.8,21.4 	"/>
</g>
<rect id="XMLID_10_" x="55" y="99.6" class="st3" width="61.5" height="5.3"/>
<g id="XMLID_7_">
	<polygon id="XMLID_9_" class="st4" points="139.5,133.9 139.5,53.1 96,94.2 	"/>
	<polygon id="XMLID_8_" class="st4" points="30.5,53 30.4,53 30.4,133.9 74.1,94.1 	"/>
</g>
<polyline id="XMLID_6_" class="st0" points="84.9,82.6 30.5,134.1 139.6,134.1 "/>
<g id="XMLID_3_">
	
		<rect id="XMLID_5_" x="81.6" y="21.8" transform="matrix(0.6458 -0.7635 0.7635 0.6458 -10.3787 83.7187)" class="st5" width="6.9" height="62.5"/>
	
		<rect id="XMLID_4_" x="81.6" y="21.8" transform="matrix(-0.6299 -0.7767 0.7767 -0.6299 97.401 152.502)" class="st5" width="6.9" height="62.5"/>
</g>
</svg>
