<svg id="Слой_1" xmlns="http://www.w3.org/2000/svg" viewBox="0 0 168.5 135.5"><style>.st0{fill:#96325b}.st1{fill:#f0f1f1}.st2{fill:#d0d2d3}.st3{fill:#bbbdbf}.st4{fill:#b74270}.st5{fill:#d8234e}</style><g id="XMLID_14_"><path id="XMLID_16_" class="st0" d="M139.5 53L88.1 9.8c-3-1.1-3-1.1-6 0L30.6 53l-.2 60.4 109.1 2.9V53"/><path id="XMLID_15_" class="st0" d="M139.5 53v.1-.1z"/></g><g id="XMLID_11_"><path id="XMLID_13_" class="st1" d="M40.9 2.1v118h88.2V21.4L109.8 2.1z"/><path id="XMLID_12_" class="st2" d="M129.1 21.4L109.8 2.1v19.3z"/></g><path id="XMLID_10_" class="st3" d="M55 99.6h61.5v5.3H55z"/><g id="XMLID_7_"><path id="XMLID_9_" class="st4" d="M139.5 133.9V53.1L96 94.2z"/><path id="XMLID_8_" class="st4" d="M30.5 53h-.1v80.9l43.7-39.8z"/></g><path id="XMLID_6_" class="st0" d="M84.9 82.6l-54.4 51.5h109.1"/><g id="XMLID_3_"><path id="XMLID_5_" class="st5" d="M58.963 35.496l4.456-5.27 47.718 40.364-4.456 5.268z"/><path id="XMLID_4_" class="st5" d="M62.933 75.39l-4.346-5.358 48.544-39.37 4.347 5.36z"/></g></svg>