<?xml version="1.0" encoding="utf-8"?>
<!-- Generator: Adobe Illustrator 19.0.0, SVG Export Plug-In . SVG Version: 6.00 Build 0)  -->
<svg version="1.1" id="Слой_1" xmlns="http://www.w3.org/2000/svg" xmlns:xlink="http://www.w3.org/1999/xlink" x="0px" y="0px"
	 viewBox="54 17.7 248.7 69.3" style="enable-background:new 54 17.7 248.7 69.3;" xml:space="preserve">
<style type="text/css">
	.st0{fill:#6E4C4B;}
	.st1{fill:#952852;}
	.st2{fill:#89164A;}
	.st3{fill:#7C2A66;}
	.st4{fill:#77005C;}
	.st5{fill:#CD3E72;}
	.st6{fill:#E9688E;}
	.st7{opacity:0.5;fill:#CD88BA;enable-background:new    ;}
	.st8{fill:#032D1C;}
	.st9{fill:#4D4D4C;}
</style>
<g>
	<path class="st0" d="M98.1,32.6c0,1.4-0.6,3.6-2.1,6.6c-1.4,3.1-2.1,5-2.1,5.8s0.4,1.1,1,1.1c0.4,0,0.9-0.2,1.4-0.6
		c0.6-0.4,1-0.6,1-0.6s0.2,0.1,0.2,0.2c0,0.5-0.4,1-1,1.2c-0.6,0.4-1.2,0.6-1.7,0.6c-1.4,0-1.8-0.6-1.8-2.1c0-1,0.4-2.3,1.1-3.9
		c0.9-2,1.4-3,1.4-3.1c0.5-1.2,1-2.2,1.1-3.2c0.2-1,0.4-1.7,0.4-2.2c0-0.9-0.2-1.2-1-1.2c-0.2,0-0.6,0.1-1.1,0.2
		c-1.7,0.7-3.9,2.8-6.5,6c-2,2.5-3.6,4.9-5.2,7.5c-0.4,0.6-1,1.5-1.7,2.5c-0.6,0-0.7-0.2-0.7-0.7c0-0.2,0-0.2,0.1-0.5
		c1.4-1.6,2.8-4.2,4.3-7.8c1.7-3.8,2.6-6.5,2.6-8.4c0-2.6-1.5-3.9-4.6-3.9c-1.5,0-3.1,0.2-4.9,1c-2.1,0.7-4.2,1.7-6.2,3.2
		c-2.6,1.7-3.9,3.6-3.9,5.2c0,1.4,1,2.1,2.8,2.1c1,0,2.3-0.2,3.9-0.7c0.2-0.1,0.2-0.1,0.4-0.1c0.2,0,0.2,0.1,0.2,0.2
		c0,0.4-0.6,0.7-1.8,1c-1,0.2-1.7,0.4-2.5,0.4c-2.7,0-3.9-1-3.9-3.2c0-2,1.4-3.9,4.1-5.8c2.1-1.4,4.3-2.5,6.6-3.2
		c2.1-0.6,3.8-1,5.4-1c3.9,0,5.8,1.6,5.8,4.7c0,2.1-0.9,4.9-2.6,8.1c1.4-1.6,2.7-3.2,4.1-4.9c2.1-2.2,3.6-3.3,4.8-3.3
		C97.2,30.1,98.1,31,98.1,32.6L98.1,32.6z M110.9,42.1c0,0.1-0.1,0.2-0.2,0.5c-1,1.7-2.1,2.8-3,3.2c-0.5,0.2-0.9,0.2-1.4,0.2
		c-1.5,0-2.1-1-2.1-3.1c0-0.4,0-0.6,0.1-1.1c-1.6,2.8-3,4.3-4.3,4.3c-0.7,0-1.1-0.4-1.1-1.2c0-1.2,0.6-2.7,1.7-4.4
		c1.2-1.7,2.3-2.8,3.4-3.2c0.4-0.2,0.9-0.2,1.2-0.2c0.9,0,1.5,0.2,1.8,1c0.1,0.1,0.1,0.2,0.1,0.2s-0.1,0.1-0.2,0.1
		c-0.2,0.1-0.2,0.1-0.4,0.2c-0.6,1-0.9,2.3-0.9,4.2c0,1.7,0.4,2.6,1.1,2.6c0.6,0,1.4-0.6,2.2-1.7c1-1.2,1.5-1.7,1.6-1.7
		C110.8,41.9,110.9,41.9,110.9,42.1L110.9,42.1z M105.6,38.2h-0.2c-1,0-2,0.6-3,1.8c-1.5,1.7-2.1,3.2-2.1,4.3c0,0.5,0.2,0.7,0.5,0.7
		c0.6,0,1.2-0.6,2.1-1.7C103.7,42.1,104.8,40.3,105.6,38.2L105.6,38.2z"/>
	<path class="st0" d="M118.4,41.9c0,0.1-0.1,0.2-0.2,0.4c-0.6,0.9-1.6,1.7-2.8,2.6c-1.5,1-2.6,1.5-3.6,1.5c-1.4,0-2.1-1-2.1-3
		c0-1.5,0.5-3.2,1.4-4.9c-1.7,0-2.5-0.2-2.5-1c0-0.2,0.1-0.2,0.4-0.2s0.7,0,1.4,0.1s1.1,0.1,1.4,0.1c0.2-0.2,0.6-1.2,1.6-2.8
		c0.6-1.4,1.4-2.1,1.7-2.6c0.4-0.4,0.9-0.5,1.4-0.5c0.6,0,0.7,0.1,0.7,0.2v0.1c-0.4,0.5-0.9,1-1.4,1.8c-1,1.4-1.8,2.7-2.5,3.8h2.8
		c0.2,0,0.5,0.1,0.5,0.2c0,0.4-1.2,0.6-3.7,0.6c-0.4,0.6-0.7,1.4-1.1,2.5s-0.5,2-0.5,2.6c0,1.2,0.5,1.8,1.4,1.8
		c0.7,0,1.7-0.4,2.8-1.2c1-0.6,1.7-1.4,2.3-2.1C118,41.9,118.1,41.9,118.4,41.9C118.4,41.8,118.4,41.8,118.4,41.9L118.4,41.9z"/>
	<path class="st0" d="M128.5,42.1c0,0.1-0.1,0.2-0.2,0.5c-1,1.7-2.1,2.8-3,3.2c-0.5,0.2-0.9,0.2-1.4,0.2c-1.5,0-2.1-1-2.1-3.1
		c0-0.4,0-0.6,0.1-1.1c-1.6,2.8-3,4.3-4.3,4.3c-0.7,0-1.1-0.4-1.1-1.2c0-1.2,0.6-2.7,1.7-4.4c1.2-1.7,2.3-2.8,3.4-3.2
		c0.4-0.2,0.9-0.2,1.2-0.2c0.9,0,1.5,0.2,1.8,1c0.1,0.1,0.1,0.2,0.1,0.2s-0.1,0.1-0.2,0.1c-0.2,0.1-0.2,0.1-0.4,0.2
		c-0.6,1-0.9,2.3-0.9,4.2c0,1.7,0.4,2.6,1.1,2.6c0.6,0,1.4-0.6,2.2-1.7c1-1.2,1.5-1.7,1.6-1.7C128.5,41.9,128.5,41.9,128.5,42.1
		L128.5,42.1z M123.3,38.2h-0.2c-1,0-2,0.6-3,1.8c-1.5,1.7-2.1,3.2-2.1,4.3c0,0.5,0.2,0.7,0.5,0.7c0.6,0,1.2-0.6,2.1-1.7
		C121.6,42.1,122.4,40.3,123.3,38.2z"/>
	<path class="st0" d="M140.7,26.7c0,1.6-1.6,4.3-4.7,8.2c-2.5,3.1-4.7,5.4-6.8,7.4c0,2.6,0.6,3.9,2,3.9s3.2-1.4,5.5-3.9
		c0.1-0.1,0.2-0.2,0.2-0.2c0.1,0,0.2,0.1,0.2,0.2c0,0.1,0,0.2-0.1,0.2c-0.9,1.1-1.7,2.1-2.8,2.8c-1.4,1-2.6,1.6-3.6,1.6
		c-1.7,0-2.7-1.5-2.7-4.3c0-2.1,1-4.7,3-8.1c1.6-2.8,3.3-5,5.2-7.1c1.4-1.4,2.5-2.1,3.2-2.1c0.2,0,0.6,0.2,0.9,0.5
		C140.5,26.1,140.7,26.3,140.7,26.7z M139.1,26.8c0-0.5-0.2-0.6-0.5-0.6c-0.6,0-1.6,0.6-2.5,2.1c-1.1,1.6-2.5,3.7-3.9,6.5
		c-1.6,3.1-2.5,5.4-2.8,6.9c1.4-1.1,3.1-3.2,5.3-6.3c2.3-3.2,3.6-5.4,4.2-6.9C138.9,27.7,139.1,27.2,139.1,26.8L139.1,26.8z"/>
	<path class="st0" d="M143.7,41.9c0,0.2-0.1,0.4-0.2,0.6c-2.1,2.8-3.9,4.3-5.5,4.3c-1.4,0-2-0.7-2-2.1c0-0.7,0.2-1.7,0.7-3
		c0.5-1.1,0.9-2.1,1.4-2.7c0.2-0.2,0.2-0.2,0.5-0.2c0.3,0,0.4,0.1,0.6,0.2c0.2,0.2,0.2,0.4,0.2,0.6c0,0.1-0.1,0.2-0.2,0.4
		c-1.2,1.8-1.7,3.4-1.7,4.7c0,0.9,0.2,1.4,1,1.4c0.8,0,1.5-0.4,2.3-1.1c0.6-0.5,1.2-1.2,1.8-2.1c0.6-0.7,1-1.1,1-1.1
		C143.6,41.6,143.7,41.8,143.7,41.9L143.7,41.9z M141.3,35.5c0,0.2-0.1,0.6-0.4,0.7c-0.2,0.2-0.5,0.4-0.9,0.4
		c-0.6,0-0.9-0.2-0.9-0.9c0-0.2,0.1-0.6,0.4-0.7c0.2-0.2,0.5-0.4,0.9-0.4C141,34.7,141.3,34.9,141.3,35.5z"/>
	<path class="st0" d="M153.9,42.1c0,0.1-0.1,0.2-0.2,0.5c-1,1.7-2.1,2.8-3,3.2c-0.5,0.2-0.9,0.2-1.4,0.2c-1.5,0-2.1-1-2.1-3.1
		c0-0.4,0-0.6,0.1-1.1c-1.6,2.8-3,4.3-4.3,4.3c-0.7,0-1.1-0.4-1.1-1.2c0-1.2,0.6-2.7,1.7-4.4c1.2-1.7,2.3-2.8,3.4-3.2
		c0.4-0.2,0.9-0.2,1.2-0.2c0.9,0,1.5,0.2,1.8,1c0.1,0.1,0.1,0.2,0.1,0.2s-0.1,0.1-0.2,0.1c-0.2,0.1-0.2,0.1-0.4,0.2
		c-0.6,1-0.9,2.3-0.9,4.2c0,1.7,0.4,2.6,1.1,2.6c0.6,0,1.4-0.6,2.2-1.7c1-1.2,1.5-1.7,1.6-1.7C153.8,41.9,153.9,41.9,153.9,42.1
		L153.9,42.1z M148.7,38.2h-0.2c-1,0-2,0.6-3,1.8c-1.5,1.7-2.1,3.2-2.1,4.3c0,0.5,0.2,0.7,0.5,0.7c0.6,0,1.2-0.6,2.1-1.7
		C146.9,42.1,147.9,40.3,148.7,38.2z M179.8,29.9c0,1.1-1,2.1-2.8,3.1c-1.4,0.7-2.8,1.2-4.3,1.4c1.7,0.4,3.2,1,4.3,1.7
		c1.7,1,2.5,2.2,2.5,3.6c0,1.1-0.6,2.3-1.7,3.7c0.6,0.9,1,1.5,1,1.8s-0.1,0.5-0.4,0.5c-0.1,0-0.2-0.1-0.2-0.2
		c-0.4-0.6-0.6-1.1-1-1.5c-1.6,1.4-3.6,2.5-6,3.2c-2.2,0.6-4.4,1-6.9,1c-1.6,0-3.1-0.2-4.6-1c-1.8-0.7-2.8-1.8-2.8-3.2
		c0-1.6,0.7-2.8,2.3-3.9c1.4-0.9,2.8-1.4,4.4-1.4c1-2.3,2.1-4.7,3.3-6.9c0.4-0.7,1-1.7,1.8-3.2c0.4-0.6,1-0.7,1.8-0.7
		c0.4,0,0.5,0.1,0.5,0.2s0,0.2-0.1,0.2c-2.2,3.1-4.3,6.4-6.2,10.3c5.4,0.1,9.4,1.4,11.9,3.6c0.7-1,1.1-2,1.1-2.8
		c0-1.5-1-2.7-3.1-3.6c-1.6-0.6-3.2-1-5-1h-0.9c-0.2,0-0.5-0.1-0.5-0.2c0-0.5,0.4-0.7,1-0.9c0.4-0.1,1-0.1,1.7-0.2
		c2.8-0.6,5-1.5,6.3-2.8c0.6-0.6,0.9-1,0.9-1.4c0-0.9-1.1-1.5-3.3-2c-1.5-0.2-3.1-0.5-4.7-0.5c-4.3,0-8.2,0.7-11.9,2.3
		c-0.1,0.1-0.2,0.1-0.2,0.1c-0.2,0-0.2-0.1-0.2-0.2c0-0.2,0.2-0.6,0.5-1c0.2-0.4,0.6-0.6,1-0.7c2.5-1,5.7-1.5,9.5-1.5
		c2.3,0,4.3,0.2,6.3,0.6C178.3,27.4,179.8,28.4,179.8,29.9L179.8,29.9z M176.2,43c-1.4-1.1-3-2.1-5-2.6c-2-0.6-3.8-1-5.7-1h-1
		c-1.4,3.1-2.1,5-2.1,6.2v0.6c0,0.2-0.1,0.5-0.4,0.5c-0.4,0-0.6-0.2-0.6-1c0-1.1,0.6-3.1,1.8-6c-3.2,0.6-4.7,2-4.7,4.3
		c0,1.1,0.7,2,2.1,2.6c1.1,0.5,2.3,0.7,3.6,0.7C169.6,47.5,173.5,46,176.2,43L176.2,43z M188,41.9c0,0.2-0.1,0.4-0.2,0.6
		c-2.1,2.8-3.9,4.3-5.5,4.3c-1.4,0-2-0.7-2-2.1c0-0.7,0.2-1.7,0.7-3c0.5-1.1,0.9-2.1,1.4-2.7c0.2-0.2,0.2-0.2,0.5-0.2
		c0.3,0,0.4,0.1,0.6,0.2c0.2,0.2,0.2,0.4,0.2,0.6c0,0.1-0.1,0.2-0.2,0.4c-1.2,1.8-1.7,3.4-1.7,4.7c0,0.9,0.2,1.4,1,1.4
		c0.6,0,1.5-0.4,2.3-1.1c0.6-0.5,1.2-1.2,1.8-2.1C187.5,42.2,187.9,41.8,188,41.9C187.9,41.6,188,41.8,188,41.9L188,41.9z
		 M185.6,35.5c0,0.2-0.1,0.6-0.4,0.7c-0.2,0.2-0.5,0.4-0.9,0.4c-0.6,0-0.9-0.2-0.9-0.9c0-0.2,0.1-0.6,0.4-0.7
		c0.2-0.2,0.5-0.4,0.9-0.4C185.3,34.7,185.6,34.9,185.6,35.5z"/>
	<path class="st0" d="M198.7,41.8c0,0.2-0.1,0.4-0.2,0.6c-1.8,3-3.7,4.4-5.5,4.4c-1.4,0-2.1-0.7-2.1-2.3c0-1.5,0.5-3.1,1.5-4.7
		c-0.2,0.1-0.2,0.1-0.5,0.1c-0.4,0-0.7-0.1-1.1-0.4c-0.5-0.2-0.6-0.6-0.6-1c-0.2,0.6-0.7,1.5-1.5,2.5c-0.9,1.4-1.5,2.1-1.7,2.1
		c-0.1,0-0.2-0.1-0.2-0.2c0-0.1,0.1-0.2,0.2-0.4c1-1.4,1.8-2.8,2.8-4.9c-0.1-0.2-0.1-0.5-0.1-0.7c0-0.6,0.1-1.2,0.2-1.8
		c0.2-1,0.6-1.4,1-1.4c0.2,0,0.5,0.2,0.6,0.6c0.2,0.4,0.2,0.6,0.2,1c0,0.6-0.5,1.5-1.5,2.6c0.2,0.7,0.6,1.1,1.2,1.1
		c0.5,0,0.9-0.2,1.2-0.6c0.4-0.5,0.6-0.7,0.9-0.7s0.4,0.1,0.6,0.2c0.2,0.2,0.2,0.4,0.2,0.6l-1.2,2.5c-0.9,1.7-1.2,2.8-1.2,3.7
		s0.4,1.2,1.2,1.2c0.6,0,1.4-0.4,2.3-1.1c0.6-0.5,1.2-1.2,2-2.1c0.6-0.7,1-1.1,1-1.1C198.6,41.6,198.7,41.6,198.7,41.8L198.7,41.8z"
		/>
	<path class="st0" d="M204.9,41.9c0,0.2-0.1,0.4-0.2,0.6c-2.1,2.8-3.9,4.3-5.5,4.3c-1.4,0-2-0.7-2-2.1c0-0.7,0.2-1.7,0.7-3
		c0.5-1.1,0.9-2.1,1.4-2.7c0.2-0.2,0.2-0.2,0.5-0.2c0.3,0,0.4,0.1,0.6,0.2c0.2,0.2,0.2,0.4,0.2,0.6c0,0.1-0.1,0.2-0.2,0.4
		c-1.2,1.8-1.7,3.4-1.7,4.7c0,0.9,0.2,1.4,1,1.4c0.8,0,1.5-0.4,2.3-1.1c0.6-0.5,1.2-1.2,1.8-2.1C204.4,42.2,204.8,41.8,204.9,41.9
		C204.9,41.6,204.9,41.8,204.9,41.9L204.9,41.9z M202.4,35.5c0,0.2-0.1,0.6-0.4,0.7c-0.2,0.2-0.5,0.4-0.9,0.4
		c-0.6,0-0.9-0.2-0.9-0.9c0-0.2,0.1-0.6,0.4-0.7c0.2-0.2,0.5-0.4,0.9-0.4C202.2,34.7,202.4,34.9,202.4,35.5z"/>
	<path class="st0" d="M213,42.2c0,0.1,0,0.1-0.1,0.2c-0.4,0.6-0.9,1-1.5,1.5s-1.4,0.6-2,0.6c-0.5,0-1-0.1-1.4-0.4
		c-1.1,1.7-2.2,2.6-3.4,2.6c-0.9,0-1.2-0.5-1.2-1.5c0-1.4,0.6-3,1.7-4.8c-0.1-0.2-0.1-0.6-0.1-0.7c0-0.9,0.2-1.7,0.9-2.5
		c0.6-0.9,1.4-1.2,2.1-1.2c0.6,0,1,0.2,1.4,1c0.2,0.6,0.4,1.1,0.4,1.7c0,1.4-0.5,2.8-1.5,4.9c0.4,0.2,0.7,0.2,1.2,0.2
		c0.7,0,1.5-0.2,2.2-1c0.6-0.6,1-1,1-1C213,41.9,213,41.9,213,42.2L213,42.2z M207.6,43.7c-0.7-0.6-1.4-1.1-1.7-1.8
		c-0.7,1.5-1.1,2.6-1.1,3.2c0,0.5,0.2,0.7,0.6,0.7s0.7-0.2,1.4-0.9C207.1,44.5,207.4,44,207.6,43.7L207.6,43.7z M208.8,39.5
		c0-0.6-0.1-1-0.2-1.6c-0.2-0.7-0.6-1.1-1-1.1c-0.6,0-1,0.4-1.4,1c-0.2,0.6-0.4,1.1-0.2,1.7c0.4-0.5,0.7-0.6,1.1-0.6
		c0.4,0,0.6,0.1,0.7,0.4v0.4c0,0.1-0.1,0.1-0.4,0.1c-0.5,0-0.9,0.5-1.4,1.4c0.2,1,0.9,1.7,1.7,2.2C208.5,41.6,208.8,40.3,208.8,39.5
		L208.8,39.5z"/>
	<path class="st0" d="M223.6,41.8c0,0.2-0.1,0.4-0.2,0.6c-0.6,1.1-1.5,2.1-2.3,2.8c-1.1,1-2.2,1.6-3.2,1.6c-1.4,0-2.1-0.9-2.1-2.5
		c0-0.4,0.2-1.1,0.6-2.2c-0.9,1.2-1.4,2-1.6,2.2c-0.7,1-1.5,1.4-2.1,1.4c-0.7,0-1.2-0.6-1.2-2.1c0-0.7,0.2-1.7,0.7-2.8
		c0.6-1.2,1.1-1.8,1.7-1.8c0.4,0,0.6,0.1,0.6,0.2c0,0-0.2,0.6-1,1.7c-0.6,1.1-1,1.8-1,2.5s0.2,1.1,0.6,1.1c0.7,0,2.1-1.7,4.1-5.2
		c0.2-0.4,0.4-0.9,0.7-1.4c0.2-0.2,0.4-0.2,0.6-0.2s0.4,0.1,0.6,0.2c0.2,0.2,0.2,0.4,0.2,0.6c0,0-0.5,0.7-1.4,2.5
		c-0.9,1.6-1.4,2.8-1.4,3.7s0.4,1.2,1.2,1.2c0.6,0,1.4-0.4,2.3-1.1c0.6-0.5,1.2-1.2,2-2.1c0.6-0.7,1-1.1,1-1.1
		C223.5,41.6,223.6,41.6,223.6,41.8L223.6,41.8z M237.9,26.5c0,1.7-1.5,4.1-4.4,7.1c-2,2-4.2,3.9-6.9,5.9c-0.5,1-0.9,2-1.2,2.8
		l3.6-3.6c1.7-1.7,3.1-2.5,3.9-2.5c0.6,0,1,0.5,1,1.4s-0.6,1.8-2,2.7c-1.2,0.9-2.2,1.2-3.2,1.2c0.5,2.3,1.5,3.4,2.8,3.4
		c1.4,0,2.8-1.1,4.6-3.2c0.2-0.2,0.2-0.2,0.5-0.2c0.1,0,0.2,0.1,0.2,0.2c0,0.1-0.1,0.2-0.2,0.4c-0.6,0.9-1.4,1.7-2.5,2.6
		c-1.4,1.1-2.2,1.7-3,1.7c-0.9,0-1.7-0.6-2.6-1.8c-0.8-0.9-1.3-1.9-1.3-2.9l-1.7,2c-0.6,0.7-1,1.6-1.1,2.5c-0.2,0.1-0.6,0.2-0.9,0.2
		c-0.6,0-0.7-0.1-0.7-0.4c0-0.6,0.5-2,1.5-4.3c1.5-3.3,3.2-6.5,5-9.6c2.8-4.7,5.3-6.9,7.1-6.9C237.4,25.1,237.9,25.6,237.9,26.5
		L237.9,26.5z M237,27c0-0.5-0.2-0.7-0.6-0.7c-0.6,0-1.6,0.6-2.8,1.7c-2.2,1.8-4.2,4.7-5.8,8.5c-0.4,0.9-0.6,1.4-0.6,1.6
		c1.7-1,3.6-2.7,5.8-5C235.8,30.4,237,28.4,237,27z M232.2,38.4c0-0.5-0.2-0.7-0.5-0.7c-0.5,0-1.7,1.1-3.9,3.2
		c0.1,0.2,0.2,0.2,0.6,0.2c0.7,0,1.5-0.2,2.5-1C231.8,39.6,232.2,39.1,232.2,38.4z"/>
</g>
<g>
	<path class="st1" d="M76.5,70.1c-0.1,0.5-1.3,0.6-1.7,0.6c-1.1,0.2-2.3,0.5-3.3,0.5s-2.1,0.1-3.1-0.1c-0.7,0-1.2-0.4-1.8-0.4
		c0.3-1.7,1.8-2.9,2.8-4.2c-0.3,0.1-0.9,0-1.3,0c-0.8,0-1.6-0.2-2.3-0.5c-0.4-0.1-0.8-0.3-1.1-0.4c-0.1-0.1-0.6-0.1-0.8-0.3
		s0.2-0.6,0.4-0.9c0.6-1,1.6-1.8,2.6-2.6c0.4-0.3,0.6-0.4,0.1-0.5s-0.9-0.2-1.4-0.4c-0.2,0-0.5,0-0.6-0.1c0.4-0.6,0.5-1.1,1-1.6
		c0.4-0.5,1-0.9,1.6-1.1c0.9-0.5,1.8-0.9,2.8-1c2-0.4,3.7,0,5.3,1.1c1.3,0.9,2.4,2.6,2.8,4.2c0.3,1.4,0.2,3,0,4.5
		c-0.1,0.8-0.4,1.8-1,2.5c-0.3,0.3-0.5,0.3-0.6,0.5c-0.1,0.1-0.2,0.4-0.3,0.4"/>
	<path class="st2" d="M76.8,68.9c-0.1,0.4-1.1,0.5-1.4,0.6c-1,0.1-1.9,0.4-2.8,0.4S70.9,70,70,69.8c-0.5-0.1-0.9-0.4-1.5-0.4
		c0.2-1.5,1.6-2.5,2.3-3.5c-0.3,0.1-0.9,0-1.1,0c-0.6-0.1-1.3-0.2-2-0.4l-0.9-0.4c-0.1-0.1-0.6-0.1-0.6-0.3
		c-0.1-0.2,0.1-0.5,0.3-0.7c0.6-0.9,1.3-1.6,2.1-2.2c0.3-0.2,0.4-0.3,0.1-0.4c-0.4-0.1-0.8-0.2-1.2-0.3c-0.2,0-0.4,0-0.6-0.1
		c0.3-0.5,0.4-1,0.8-1.4s0.9-0.7,1.3-0.9c0.8-0.4,1.6-0.7,2.4-0.9c1.7-0.3,3.1-0.1,4.5,1c1.1,0.8,2.1,2.1,2.3,3.5
		c0.3,1.2,0.2,2.5,0,3.8c-0.1,0.6-0.4,1.6-0.9,2.1c-0.1,0.1-0.3,0.2-0.4,0.4c-0.1,0.1-0.2,0.3-0.3,0.4"/>
	<path class="st3" d="M73.9,56.6c2.6-0.2,4.8,2.3,4.8,5.7c0.1,3.3-2,6.4-4.6,6.6s-4.8-2.3-4.8-5.7C69.2,59.8,71.3,56.9,73.9,56.6z"
		/>
	<path class="st4" d="M73.9,56.6c2.6-0.2-3.6,2.5-3.5,5.8s6.5,6.1,3.8,6.4c-2.6,0.2-4.8-2.3-4.8-5.7C69.2,59.8,71.3,56.9,73.9,56.6z
		"/>
	<path class="st5" d="M69.2,60.4c1,1.2,2.1,2.3,3.3,3.3c0.5,0.4,1.2,0.6,1.8,0.8c0.4,0.1,0.8-0.1,1.1,0.1c-0.3,0.4-0.6,0.6-0.9,1
		c-0.5,0.8-0.9,1.3-1.6,1.9c-0.6,0.6-1.1,1.2-1.6,1.9c-0.1,0.3-0.7,0.8-0.7,1.3c0.4,0.1,0.8,0.4,1.2,0.5c0.6,0.1,1.3,0.1,1.9-0.1
		c0.8-0.1,1.7-0.1,2.6-0.4s1.5-0.7,2.2-1.3c2.3-2.1,2.7-5.4,2.3-8.3c-0.2-1.6-0.5-2.9-1.6-4c-0.8-0.9-1.8-1.3-2.8-1.7
		c-2.3-0.8-4.9-0.4-7,0.9c-0.9,0.6-1.8,1.1-2.6,1.8c-0.6,0.5-1.3,0.9-1.8,1.5c1.1-0.3,2.1-0.2,3.2-0.4c0.5-0.1,0.9-0.1,1.4-0.2
		l1.3-0.1c-0.6,0.4-1.1,0.9-1.5,1.4c0.1,0.1,0.1,0.2,0.1,0.3"/>
	<path class="st6" d="M79.9,65.9c0.1,0.4-0.3,0.7-0.5,1C79,67.5,78.5,68,78,68.6c-0.6,0.6-1.3,1.1-2.2,1.3c-0.6,0.2-1.1,0.3-1.7,0.5
		c0.2-0.3,0.6-0.4,0.8-0.6c0.5-0.4,1-0.8,1.4-1.1c1-0.8,2.3-1.6,3-2.6c-0.2,0.1-0.4,0.3-0.6,0.4c-0.4,0.3-0.6,0.6-1.1,0.7
		c-0.8,0.4-1.8,0.7-2.7,0.8c0.1-0.2,0.6-0.4,0.8-0.6c0.5-0.4,1-0.7,1.5-1.1c0.6-0.6,1.3-1.1,2-1.7c-0.4,0-0.9,0.4-1.3,0.4
		c-0.6,0.1-1.1,0.3-1.7,0.3c0.6-0.3,1.1-0.6,1.7-0.9c0.4-0.2,1.1-0.5,1.3-0.9c-0.3-0.2-1.2-0.1-1.6-0.1s-1.9-0.2-2-0.8
		c0.6-0.3,1.5-0.1,2.2-0.1c0.3,0,1.3,0,1-0.4c-0.1-0.1-0.4-0.1-0.6-0.2l-1-0.3c-1.3-0.4-2.6-0.9-3.8-1.3c-0.3-0.1-2.1-0.6-2-1.1
		c0.1-0.4,1.6-0.2,1.8-0.3c1,0,1.9,0.2,2.9,0.4c0.6,0.1,1.2,0.4,1.8,0.4c-0.1-0.3-0.4-0.4-0.6-0.5c-0.5-0.3-1.1-0.6-1.7-0.9
		c-0.6-0.3-1.1-0.4-1.7-0.6c-0.3-0.1-0.9-0.2-1-0.5c0.8-0.1,1.6,0.1,2.3,0.4c0.5,0.1,1.1,0.3,1.6,0.5c0.3,0.1,0.6,0.3,1,0.4
		c-0.1-0.3-0.5-0.4-0.8-0.6c-0.6-0.4-1.2-0.7-1.8-1c-0.9-0.4-1.7-0.6-2.6-1c0.2-0.2,1.6,0.2,1.8,0.3c0.6,0.1,1.3,0.3,2,0.5
		c1.2,0.4,1.9,1.1,2.6,2.3c0.6,1.1,0.7,2.5,0.9,3.8c0.1,0.9,0.1,1.9-0.1,2.8C79.9,65.3,79.8,65.8,79.9,65.9"/>
	<path class="st7" d="M70,65.2c-0.1,0.6,0.4,1.3,0.8,1.7c0.3,0.4,1,0.6,1-0.2c0-0.6-1.1-2.6-1.8-2.3c-0.2,0.4,0.1,0.9,0.2,1.2"/>
	<path class="st8" d="M83.5,62c-0.4,0.7-4.5,6.5-5.2,5.4c-0.1-0.2,0.6-1.1,0.8-1.3l0.9-1.6c0.2-0.4,0.5-0.8,0.1-0.9
		c-0.5-0.2-1.1,0-1.7-0.2c-1.6-0.6,1.3-1,1.6-1.3c0.3-0.4-0.3-0.7-0.5-0.9c-0.5-0.4-1.1-0.6-1.6-1.1c-0.4-0.4-0.3-0.7,0.3-0.6
		c0.3,0,1.5,0.6,1.5,0.1s-1.1-1.1-1.3-1.2c-0.5-0.3-1.2-0.6-1.5-1.2c-0.4-1.2,0.9-0.8,1.5-0.6c1,0.4,1.8,0.9,2.7,1.5
		c0.4,0.3,0.8,0.6,1.2,0.8c0.3,0.2,0.8,0.4,1,0.6c0.4,0.4,0.4,1.1,0.4,1.7C83.5,61.5,83.6,61.9,83.5,62"/>
</g>
<g>
	<path class="st1" d="M97.2,64c0.6,0,1,1.3,1.2,1.7c0.6,1.2,1.1,2.4,1.6,3.6c0.4,1.2,0.8,2.3,0.9,3.5c0.1,0.6,0,1.3,0.1,2.1
		c-1.8,0.4-3.5-1.1-5.2-1.7c0.2,0.4,0.4,1.1,0.5,1.5c0.1,0.9,0.3,2,0.3,2.9c0.1,0.5,0,1-0.1,1.4c0,0.2,0.1,0.9,0,1
		c-0.1,0.2-0.6-0.1-1-0.1c-1.3-0.4-2.4-1.1-3.4-1.9c-0.4-0.3-0.6-0.5-0.5,0.1s0.1,1.2,0.1,1.8c0.1,0.3,0.1,0.6,0.1,0.9
		c-0.7-0.2-1.3-0.1-2-0.5c-0.6-0.4-1.2-0.9-1.7-1.5c-0.9-0.8-1.5-1.8-2-2.8c-1.1-2.1-1.3-4.2-0.6-6.5c0.6-1.8,1.8-3.6,3.3-4.7
		c1.3-0.9,3-1.3,4.5-1.6c0.9-0.1,2.1-0.1,2.8,0.2c0.2,0.1,0.4,0.2,0.6,0.3c0.3,0,0.5,0,0.5,0.1"/>
	<path class="st2" d="M95.9,64.1c0.5-0.1,0.9,1.1,1.1,1.4c0.5,1.1,1,2.1,1.3,3.1s0.6,2,0.8,3c0.1,0.6,0,1.2,0.1,1.8
		c-1.6,0.3-3-0.9-4.4-1.4c0.2,0.3,0.4,0.9,0.4,1.3c0.1,0.8,0.3,1.6,0.2,2.4c0,0.4,0,0.9,0,1.2c0,0.2,0.1,0.6,0,0.9
		c-0.1,0.2-0.6,0-0.8-0.1c-1.1-0.3-2-1-2.9-1.6c-0.4-0.3-0.4-0.4-0.4,0.1c0.1,0.5,0.1,1,0.1,1.5c0.1,0.3,0.1,0.5,0.1,0.6
		c-0.6-0.1-1.1-0.1-1.6-0.4c-0.6-0.3-1-0.8-1.4-1.2c-0.7-0.7-1.3-1.6-1.7-2.5c-0.9-1.8-1.1-3.5-0.4-5.5c0.4-1.5,1.5-3.1,2.8-4
		c1.1-0.8,2.6-1.1,3.8-1.3c0.6-0.1,1.8-0.1,2.3,0.2c0.2,0.1,0.3,0.2,0.5,0.3c0.1,0.1,0.4,0.1,0.4,0.2"/>
	<path class="st3" d="M84.3,71.9c-1.1-2.9,0.8-6.2,4.3-7.5c3.4-1.3,7.1,0,8.2,2.8c1.1,2.9-0.8,6.2-4.3,7.5
		C89.1,76,85.4,74.7,84.3,71.9z"/>
	<path class="st4" d="M84.3,71.9c-1.1-2.9,3.8,3.2,7.2,1.9s4.2-9.5,5.2-6.7c1.1,2.9-0.8,6.2-4.3,7.5C89.1,76,85.4,74.7,84.3,71.9z"
		/>
	<path class="st5" d="M89.6,75.8c0.9-1.6,1.8-3.2,2.3-5c0.2-0.8,0.4-1.6,0.2-2.3c-0.1-0.5-0.4-0.9-0.2-1.3c0.4,0.2,0.8,0.5,1.3,0.6
		c1,0.2,1.6,0.6,2.5,1.2c0.8,0.5,1.6,0.9,2.5,1.2c0.4,0.1,1.1,0.7,1.5,0.4c0-0.6,0.1-1,0.1-1.5c-0.1-0.8-0.4-1.6-0.7-2.2
		c-0.4-0.9-0.7-1.9-1.3-2.8c-0.6-0.9-1.2-1.5-2.1-2c-2.9-1.8-6.5-1.1-9.3,0.4c-1.5,0.8-2.8,1.6-3.6,3.2c-0.6,1.2-0.7,2.6-0.8,3.9
		c-0.1,2.8,1.3,5.7,3.2,7.7c0.8,0.9,1.7,1.6,2.6,2.3c0.7,0.5,1.3,1.1,2.1,1.6c-0.6-1.1-1-2.3-1.5-3.5c-0.3-0.5-0.4-1-0.6-1.6
		c-0.2-0.5-0.3-1-0.6-1.4c0.6,0.5,1.2,0.9,2,1.2c0.1-0.1,0.1-0.2,0.2-0.3"/>
	<path class="st6" d="M91.8,61.6c0.3-0.2,0.8,0.1,1.1,0.1c0.8,0.3,1.4,0.6,2.2,1.1c0.9,0.6,1.5,1.1,2.1,1.9c0.4,0.6,0.6,1.2,1.1,1.7
		c-0.4-0.1-0.6-0.5-0.9-0.6c-0.5-0.4-1.1-0.9-1.6-1.2c-1.1-0.9-2.3-2.1-3.7-2.5c0.1,0.2,0.4,0.3,0.6,0.5c0.4,0.3,0.8,0.6,1.1,1
		c0.7,0.7,1.3,1.8,1.6,2.8c-0.3-0.1-0.6-0.6-0.9-0.7c-0.5-0.4-1.1-0.9-1.7-1.3c-0.8-0.5-1.6-1.1-2.4-1.6c0.1,0.4,0.6,0.9,0.9,1.3
		c0.4,0.6,0.6,1.2,0.9,1.8c-0.5-0.5-1-1.1-1.5-1.7c-0.4-0.4-0.8-1.1-1.3-1.3c-0.1,0.4,0.3,1.4,0.4,1.9s0.4,2.3-0.1,2.6
		c-0.5-0.6-0.6-1.7-0.9-2.5c-0.1-0.3-0.4-1.5-0.7-1c-0.1,0.1,0,0.6,0,0.7c0.1,0.5,0.1,1,0.1,1.5c0.1,1.6,0,3.3-0.1,4.8
		c0,0.3,0.1,2.6-0.4,2.7c-0.4,0.1-0.8-1.7-0.9-2.1c-0.3-1.1-0.4-2.3-0.6-3.5c-0.1-0.7,0.1-1.6-0.1-2.2c-0.3,0.2-0.3,0.6-0.3,0.9
		c-0.1,0.7-0.3,1.5-0.4,2.2s-0.1,1.5-0.1,2.2c0,0.4,0,1.1-0.1,1.3c-0.4-0.9-0.4-1.9-0.4-2.8c-0.1-0.6-0.1-1.3-0.1-1.9
		c0-0.4,0.1-0.9,0-1.2c-0.3,0.2-0.3,0.7-0.4,1.1c-0.2,0.9-0.3,1.6-0.4,2.5c-0.1,1.1-0.1,2.2-0.2,3.3c-0.4-0.1-0.2-1.8-0.3-2.3
		c-0.1-0.8-0.1-1.6-0.1-2.4c0.1-1.6,0.5-2.6,1.5-3.8c0.9-1.1,2.3-1.7,3.5-2.4c0.9-0.5,1.9-0.8,2.8-0.9c0.3,0,0.9-0.1,1-0.3"/>
	<path class="st7" d="M94.3,73.3c0.6-0.1,1.2-0.9,1.5-1.6c0.3-0.5,0.2-1.3-0.6-1.1c-0.6,0.3-2.3,2.1-1.8,2.9
		c0.5,0.1,0.9-0.4,1.2-0.6"/>
	<path class="st8" d="M86.6,59c0.9,0.2,8.2,2.8,7.2,4c-0.1,0.2-1.3-0.3-1.6-0.4l-1.8-0.5c-0.4-0.1-1-0.2-1.1,0.3
		c-0.1,0.6,0.4,1.3,0.4,2c-0.1,1.9-1.5-1.1-1.8-1.3c-0.6-0.1-0.6,0.6-0.8,1c-0.2,0.8-0.3,1.4-0.6,2.1c-0.3,0.6-0.6,0.6-0.8-0.1
		c-0.1-0.4,0.1-1.9-0.4-1.8c-0.4,0.1-0.6,1.6-0.7,2c-0.1,0.7-0.2,1.7-0.8,2.1c-1.1,0.9-1.1-0.7-1.1-1.5c0.1-1.3,0.4-2.4,0.6-3.5
		l0.4-1.6c0.1-0.4,0.1-0.9,0.3-1.3c0.3-0.6,1-0.8,1.6-1.1C86.1,59.1,86.4,58.9,86.6,59"/>
</g>
<rect x="78.7" y="51.2" class="st9" width="158.3" height="1.1"/>
<g>
	<path class="st0" d="M110.5,61.8c0.4,0.6,0.6,1.5,0.6,2.6c0,1.1-0.2,2-0.7,2.7c-0.4,0.6-1.1,1-1.9,1c-0.4,0-0.8-0.1-1.2-0.3
		c-0.3-0.2-0.6-0.4-0.9-0.7v3.4l-0.6,0.1V61h0.5l0,1c0.3-0.4,0.6-0.7,0.9-0.9c0.4-0.2,0.8-0.3,1.2-0.3
		C109.4,60.9,110,61.2,110.5,61.8z M109.9,66.7c0.3-0.5,0.5-1.3,0.5-2.3c0-2-0.6-3-1.9-3c-0.4,0-0.8,0.1-1.1,0.3
		c-0.3,0.2-0.6,0.5-0.9,0.9v3.8c0.2,0.4,0.5,0.6,0.8,0.8c0.3,0.2,0.7,0.3,1.1,0.3C109.1,67.5,109.6,67.2,109.9,66.7z"/>
	<path class="st0" d="M117.9,61.4c0.3,0.4,0.5,0.9,0.5,1.6v4.9h-0.6v-4.8c0-1.1-0.5-1.7-1.4-1.7c-0.5,0-0.9,0.1-1.2,0.4
		c-0.4,0.3-0.7,0.6-1,1.1v5h-0.6v-9.7l0.6-0.1v4.1c0.7-0.9,1.4-1.3,2.4-1.3C117.1,60.9,117.5,61.1,117.9,61.4z"/>
	<path class="st0" d="M125.6,61.8c0.5,0.6,0.8,1.5,0.8,2.6c0,1.1-0.3,2-0.8,2.7c-0.5,0.6-1.2,1-2.1,1s-1.6-0.3-2.1-1
		c-0.5-0.6-0.8-1.5-0.8-2.6c0-1.1,0.3-2,0.8-2.6c0.5-0.6,1.2-1,2.1-1C124.4,60.9,125.1,61.2,125.6,61.8z M121.8,62.2
		c-0.4,0.5-0.6,1.3-0.6,2.3c0,1,0.2,1.7,0.6,2.3c0.4,0.5,0.9,0.8,1.6,0.8c0.7,0,1.2-0.3,1.6-0.8c0.4-0.5,0.6-1.3,0.6-2.3
		c0-1-0.2-1.7-0.6-2.2c-0.4-0.5-0.9-0.8-1.6-0.8C122.8,61.4,122.2,61.7,121.8,62.2z"/>
	<path class="st0" d="M131.7,67.6c-0.4,0.3-0.9,0.4-1.4,0.4c-0.5,0-0.9-0.1-1.2-0.4c-0.3-0.3-0.4-0.7-0.4-1.3v-4.7h-1.1V61h1.1v-1.7
		l0.6-0.1V61h1.8l-0.1,0.5h-1.7v4.7c0,0.8,0.4,1.3,1.1,1.3c0.4,0,0.7-0.1,1.1-0.3L131.7,67.6z"/>
	<path class="st0" d="M137.3,61.8c0.5,0.6,0.8,1.5,0.8,2.6c0,1.1-0.3,2-0.8,2.7c-0.5,0.6-1.2,1-2.1,1s-1.6-0.3-2.1-1
		c-0.5-0.6-0.8-1.5-0.8-2.6c0-1.1,0.3-2,0.8-2.6c0.5-0.6,1.2-1,2.1-1C136.1,60.9,136.8,61.2,137.3,61.8z M133.6,62.2
		c-0.4,0.5-0.6,1.3-0.6,2.3c0,1,0.2,1.7,0.6,2.3c0.4,0.5,0.9,0.8,1.6,0.8c0.7,0,1.2-0.3,1.6-0.8c0.4-0.5,0.6-1.3,0.6-2.3
		c0-1-0.2-1.7-0.6-2.2c-0.4-0.5-0.9-0.8-1.6-0.8C134.5,61.4,134,61.7,133.6,62.2z"/>
	<path class="st0" d="M145.4,61.1c-0.4,0.1-1,0.2-1.9,0.2c0.8,0.4,1.2,1,1.2,1.9c0,0.7-0.2,1.2-0.7,1.6c-0.4,0.4-1,0.6-1.8,0.6
		c-0.3,0-0.6,0-0.9-0.1c-0.2,0.1-0.3,0.2-0.4,0.4s-0.2,0.3-0.2,0.5c0,0.5,0.4,0.8,1.2,0.8h1.1c0.7,0,1.2,0.2,1.6,0.5
		c0.4,0.3,0.6,0.7,0.6,1.2c0,0.6-0.2,1.1-0.7,1.4c-0.5,0.3-1.2,0.5-2.2,0.5c-1,0-1.7-0.2-2.2-0.5c-0.4-0.3-0.7-0.8-0.7-1.5h0.6
		c0,0.4,0.1,0.6,0.2,0.8c0.1,0.2,0.4,0.3,0.7,0.4c0.3,0.1,0.8,0.1,1.3,0.1c1.5,0,2.3-0.5,2.3-1.4c0-0.4-0.1-0.7-0.4-0.9
		c-0.3-0.2-0.7-0.3-1.2-0.3h-1.1c-0.5,0-1-0.1-1.2-0.3c-0.3-0.2-0.4-0.5-0.4-0.9c0-0.4,0.3-0.8,0.8-1.1c-0.4-0.2-0.7-0.5-0.9-0.8
		c-0.2-0.3-0.3-0.7-0.3-1.2c0-0.7,0.2-1.2,0.7-1.7c0.4-0.4,1-0.6,1.8-0.6c0.9,0,1.5,0,1.9-0.1c0.4-0.1,0.7-0.2,1.1-0.3L145.4,61.1z
		 M140.8,61.8c-0.3,0.3-0.5,0.8-0.5,1.3c0,0.6,0.2,1,0.5,1.3c0.3,0.3,0.8,0.5,1.3,0.5c0.6,0,1-0.2,1.4-0.5c0.3-0.3,0.5-0.7,0.5-1.3
		c0-0.6-0.2-1-0.5-1.3c-0.3-0.3-0.8-0.5-1.4-0.5C141.6,61.4,141.1,61.5,140.8,61.8z"/>
	<path class="st0" d="M150.2,61l-0.1,0.6c-0.2-0.1-0.4-0.1-0.6-0.1c-0.5,0-0.9,0.2-1.2,0.5c-0.3,0.3-0.5,0.9-0.7,1.6v4.3H147V61h0.5
		l0,1.6c0.2-0.6,0.4-1,0.8-1.3c0.3-0.3,0.7-0.4,1.2-0.4C149.8,60.9,150,60.9,150.2,61z"/>
	<path class="st0" d="M155.7,67.2c0.1,0.2,0.2,0.3,0.4,0.4L156,68c-0.3-0.1-0.5-0.2-0.7-0.4c-0.2-0.2-0.2-0.5-0.3-0.8
		c-0.5,0.8-1.2,1.2-2.2,1.2c-0.7,0-1.2-0.2-1.5-0.6c-0.4-0.4-0.6-0.9-0.6-1.5c0-0.7,0.3-1.2,0.8-1.6c0.5-0.4,1.2-0.6,2-0.6h1.4V63
		c0-0.6-0.1-1-0.4-1.3c-0.3-0.3-0.7-0.4-1.3-0.4c-0.6,0-1.2,0.1-1.9,0.4l-0.2-0.5c0.8-0.3,1.5-0.4,2.1-0.4c0.8,0,1.3,0.2,1.7,0.5
		s0.5,0.9,0.5,1.6v3.4C155.5,66.8,155.6,67.1,155.7,67.2z M154.9,66.2v-2h-1.3c-0.7,0-1.3,0.1-1.7,0.4c-0.4,0.3-0.6,0.7-0.6,1.3
		c0,0.5,0.1,0.9,0.4,1.1s0.7,0.4,1.1,0.4C153.8,67.5,154.5,67.1,154.9,66.2z"/>
	<path class="st0" d="M163,61.8c0.4,0.6,0.6,1.5,0.6,2.6c0,1.1-0.2,2-0.7,2.7c-0.4,0.6-1.1,1-1.9,1c-0.4,0-0.8-0.1-1.2-0.3
		c-0.3-0.2-0.6-0.4-0.9-0.7v3.4l-0.6,0.1V61h0.5l0,1c0.3-0.4,0.6-0.7,0.9-0.9c0.4-0.2,0.8-0.3,1.2-0.3
		C161.9,60.9,162.6,61.2,163,61.8z M162.5,66.7c0.3-0.5,0.5-1.3,0.5-2.3c0-2-0.6-3-1.9-3c-0.4,0-0.8,0.1-1.1,0.3
		c-0.3,0.2-0.6,0.5-0.9,0.9v3.8c0.2,0.4,0.5,0.6,0.8,0.8c0.3,0.2,0.7,0.3,1.1,0.3C161.6,67.5,162.1,67.2,162.5,66.7z"/>
	<path class="st0" d="M170.4,61.4c0.3,0.4,0.5,0.9,0.5,1.6v4.9h-0.6v-4.8c0-1.1-0.5-1.7-1.4-1.7c-0.5,0-0.9,0.1-1.2,0.4
		c-0.4,0.3-0.7,0.6-1,1.1v5H166v-9.7l0.6-0.1v4.1c0.7-0.9,1.4-1.3,2.4-1.3C169.6,60.9,170.1,61.1,170.4,61.4z"/>
	<path class="st0" d="M175.6,67.9c-0.2,0.5-0.4,1-0.6,1.3c-0.2,0.3-0.5,0.6-0.8,0.8c-0.3,0.2-0.8,0.4-1.3,0.5l-0.1-0.5
		c0.4-0.1,0.8-0.3,1.1-0.4c0.3-0.2,0.5-0.4,0.6-0.6c0.1-0.3,0.3-0.6,0.5-1.1h-0.2l-2.4-6.9h0.7l2.2,6.4l2.1-6.4h0.7L175.6,67.9z"/>
</g>
</svg>
