<?xml version="1.0" encoding="utf-8"?>
<!-- Generator: Adobe Illustrator 19.0.0, SVG Export Plug-In . SVG Version: 6.00 Build 0)  -->
<svg version="1.1" id="Слой_1" xmlns="http://www.w3.org/2000/svg" xmlns:xlink="http://www.w3.org/1999/xlink" x="0px" y="0px"
	 viewBox="118 10.7 376.5 83.3" style="enable-background:new 118 10.7 376.5 83.3;" xml:space="preserve">
<style type="text/css">
	.st0{fill:#6E4C4B;}
	.st1{fill:#D0C7D1;}
	.st2{fill:#952852;}
	.st3{fill:#89164A;}
	.st4{fill:#7C2A66;}
	.st5{fill:#77005C;}
	.st6{fill:#CD3E72;}
	.st7{fill:#E9688E;}
	.st8{opacity:0.5;fill:#CD88BA;enable-background:new    ;}
	.st9{fill:#032D1C;}
</style>
<g>
	<path class="st0" d="M177.9,28.9c0,2-0.9,5.2-3,9.8c-2,4.4-3,7.3-3,8.5c0,1.1,0.5,1.6,1.4,1.6c0.5,0,1.3-0.3,2-0.9
		c0.8-0.5,1.4-0.9,1.4-0.9c0.2,0,0.3,0.2,0.3,0.3c0,0.6-0.5,1.4-1.4,1.7c-0.9,0.5-1.7,0.8-2.5,0.8c-1.9,0-2.7-0.9-2.7-3
		c0-1.4,0.5-3.3,1.6-5.7c1.3-2.8,1.9-4.3,2-4.4c0.6-1.7,1.4-3.3,1.6-4.7c0.5-1.4,0.5-2.5,0.5-3.3c0-1.3-0.5-1.7-1.4-1.7
		c-0.5,0-0.9,0.2-1.6,0.5c-2.4,1.1-5.7,4.1-9.5,8.8c-2.8,3.5-5.2,7.1-7.6,10.9c-0.5,0.9-1.4,2.2-2.5,3.6c-0.8,0-1.1-0.5-1.1-1.1
		c0-0.3,0-0.5,0.2-0.6c1.9-2.4,4.1-6.1,6.3-11.2c2.4-5.5,3.8-9.6,3.8-12.1c0-3.8-2.2-5.7-6.6-5.7c-2.2,0-4.4,0.5-7.1,1.4
		c-3.2,1.1-6.1,2.5-9,4.6c-3.8,2.5-5.8,5.2-5.8,7.6c0,2,1.4,3,4.1,3c1.4,0,3.3-0.5,5.8-1.1c0.3-0.2,0.5-0.2,0.5-0.2
		c0.3,0,0.5,0.2,0.5,0.3c0,0.5-0.9,1.1-2.7,1.4c-1.4,0.5-2.5,0.5-3.5,0.5c-3.9,0-5.8-1.4-5.8-4.6c0-2.8,2-5.7,6-8.4
		c3-2,6.1-3.6,9.8-4.7c3-0.8,5.5-1.4,8-1.4c5.7,0,8.5,2.4,8.5,6.8c0,3.2-1.3,7.1-3.8,11.8c2-2.4,3.9-4.7,6-7.1
		c3-3.3,5.2-4.9,7.1-4.9C176.7,25.3,177.9,26.5,177.9,28.9L177.9,28.9z M196.5,42.8c0,0.2-0.2,0.5-0.3,0.6c-1.4,2.4-3,4.1-4.3,4.7
		c-0.6,0.3-1.3,0.5-1.9,0.5c-2.2,0-3.2-1.4-3.2-4.4c0-0.5,0-0.9,0.2-1.6c-2.4,4.1-4.3,6.1-6.1,6.1c-1.1,0-1.6-0.5-1.6-1.7
		c0-1.7,0.8-3.9,2.5-6.5s3.3-4.1,5-4.6c0.5-0.3,1.3-0.5,1.7-0.5c1.3,0,2.2,0.5,2.7,1.4c0.2,0.2,0.2,0.3,0.2,0.5c0,0-0.2,0.2-0.5,0.2
		c-0.3,0.2-0.5,0.2-0.5,0.5c-0.8,1.4-1.3,3.3-1.3,6.1c0,2.4,0.5,3.8,1.6,3.8c0.8,0,1.9-0.8,3.3-2.5c1.4-1.7,2.2-2.5,2.4-2.5
		C196.4,42.4,196.5,42.4,196.5,42.8L196.5,42.8z M188.8,37.2h-0.5c-1.4,0-2.8,0.9-4.3,2.7c-2.2,2.5-3.2,4.6-3.2,6.3
		c0,0.6,0.3,1.1,0.6,1.1c0.8,0,1.7-0.8,3-2.4C186.3,42.8,187.7,40.2,188.8,37.2L188.8,37.2z"/>
	<path class="st0" d="M207.6,42.6c0,0.2-0.2,0.3-0.3,0.5c-0.9,1.3-2.4,2.5-4.3,3.8c-2.2,1.4-3.8,2.2-5.2,2.2c-2,0-3-1.4-3-4.3
		c0-2.2,0.6-4.6,1.9-7.1c-2.4,0-3.6-0.5-3.6-1.4c0-0.3,0.2-0.3,0.5-0.3s1.1,0,2,0.2s1.6,0.2,2,0.2c0.3-0.5,0.9-1.7,2.4-4.3
		c0.9-1.9,1.9-3.2,2.4-3.8c0.5-0.5,1.3-0.6,2-0.6s1.1,0.2,1.1,0.5l0,0c-0.5,0.6-1.3,1.4-2,2.7c-1.4,2-2.7,3.9-3.6,5.5h4.3
		c0.5,0,0.6,0.2,0.6,0.3c0,0.5-1.7,0.8-5.4,0.9c-0.5,0.8-1.1,2-1.6,3.6s-0.6,2.8-0.6,3.8c0,1.7,0.6,2.7,2,2.7c1.1,0,2.5-0.5,4.3-1.7
		c1.4-0.9,2.5-2,3.3-3.2C207.1,42.6,207.2,42.4,207.6,42.6C207.6,42.3,207.6,42.3,207.6,42.6L207.6,42.6z"/>
	<path class="st0" d="M222.4,42.8c0,0.2-0.2,0.5-0.3,0.6c-1.4,2.4-3,4.1-4.3,4.7c-0.6,0.3-1.3,0.5-1.9,0.5c-2.2,0-3.2-1.4-3.2-4.4
		c0-0.5,0-0.9,0.2-1.6c-2.4,4.1-4.3,6.1-6.1,6.1c-1.1,0-1.6-0.5-1.6-1.7c0-1.7,0.8-3.9,2.5-6.5s3.3-4.1,5-4.6
		c0.5-0.3,1.3-0.5,1.7-0.5c1.3,0,2.2,0.5,2.7,1.4c0.2,0.2,0.2,0.3,0.2,0.5c0,0-0.2,0.2-0.5,0.2c-0.3,0.2-0.5,0.2-0.5,0.5
		c-0.8,1.4-1.3,3.3-1.3,6.1c0,2.4,0.5,3.8,1.6,3.8c0.8,0,1.9-0.8,3.3-2.5c1.4-1.7,2.2-2.5,2.4-2.5C222.4,42.4,222.4,42.4,222.4,42.8
		L222.4,42.8z M214.8,37.2h-0.5c-1.4,0-2.8,0.9-4.3,2.7c-2.2,2.5-3.2,4.6-3.2,6.3c0,0.6,0.3,1.1,0.6,1.1c0.8,0,1.7-0.8,3-2.4
		C212.1,42.8,213.5,40.2,214.8,37.2z"/>
	<path class="st0" d="M240,20.4c0,2.4-2.4,6.3-6.8,12c-3.5,4.4-6.8,8-9.9,10.9c0,3.8,0.9,5.7,2.8,5.7s4.6-1.9,8-5.8
		c0.2-0.2,0.3-0.3,0.5-0.3s0.3,0.2,0.3,0.5c0,0.2,0,0.3-0.2,0.5c-1.3,1.6-2.5,3-4.3,4.3c-2,1.4-3.8,2.4-5.2,2.4
		c-2.5,0-3.9-2.2-3.9-6.3c0-3,1.4-6.8,4.3-11.8c2.4-4.1,4.9-7.4,7.6-10.4c1.9-2,3.5-3.2,4.7-3.2c0.5,0,0.8,0.3,1.3,0.6
		C239.7,19.4,240,19.7,240,20.4z M237.7,20.4c0-0.6-0.3-0.9-0.6-0.9c-0.9,0-2.4,0.9-3.6,3c-1.6,2.4-3.5,5.4-5.7,9.5
		c-2.4,4.4-3.6,7.9-4.3,9.9c1.9-1.6,4.4-4.7,7.7-9.1c3.3-4.6,5.2-8,6.1-10.1C237.5,21.8,237.7,21,237.7,20.4L237.7,20.4z"/>
	<path class="st0" d="M244.4,42.6c0,0.3-0.2,0.5-0.5,0.8c-3.2,4.3-5.8,6.3-8,6.3c-1.9,0-2.8-1.1-2.8-3.2c0-1.1,0.5-2.4,1.1-4.3
		c0.6-1.6,1.3-3,2-3.9c0.3-0.3,0.5-0.5,0.6-0.5c0.2,0,0.5,0.2,0.8,0.5s0.5,0.5,0.5,0.9c0,0.2-0.2,0.5-0.3,0.5
		c-1.7,2.7-2.5,5-2.5,6.8c0,1.3,0.5,1.9,1.4,1.9s2.2-0.5,3.3-1.6c0.8-0.6,1.7-1.7,2.7-3c0.8-1.1,1.4-1.6,1.4-1.6
		C244.3,42.1,244.4,42.3,244.4,42.6L244.4,42.6z M241,33.1c0,0.5-0.2,0.8-0.5,1.1s-0.6,0.5-1.3,0.5c-0.8,0-1.3-0.5-1.3-1.3
		c0-0.5,0.2-0.8,0.5-1.1s0.6-0.5,1.3-0.5C240.5,31.9,241,32.4,241,33.1z"/>
	<path class="st0" d="M259.3,42.8c0,0.2-0.2,0.5-0.3,0.6c-1.4,2.4-3,4.1-4.3,4.7c-0.6,0.3-1.3,0.5-1.9,0.5c-2.2,0-3.2-1.4-3.2-4.4
		c0-0.5,0-0.9,0.2-1.6c-2.4,4.1-4.3,6.1-6.1,6.1c-1.1,0-1.6-0.5-1.6-1.7c0-1.7,0.8-3.9,2.5-6.5c1.7-2.5,3.3-4.1,5-4.6
		c0.5-0.3,1.3-0.5,1.7-0.5c1.3,0,2.2,0.5,2.7,1.4c0.2,0.2,0.2,0.3,0.2,0.5c0,0-0.2,0.2-0.5,0.2c-0.3,0.2-0.5,0.2-0.5,0.5
		c-0.8,1.4-1.3,3.3-1.3,6.1c0,2.4,0.5,3.8,1.6,3.8c0.8,0,1.9-0.8,3.3-2.5S259,42.9,259.3,42.8C259.3,42.4,259.3,42.4,259.3,42.8
		L259.3,42.8z M251.7,37.2h-0.5c-1.4,0-2.8,0.9-4.3,2.7c-2.2,2.5-3.2,4.6-3.2,6.3c0,0.6,0.3,1.1,0.6,1.1c0.8,0,1.7-0.8,3-2.4
		C249,42.8,250.6,40.2,251.7,37.2z M296.9,24.9c0,1.6-1.4,3.2-4.1,4.4c-2,1.1-4.1,1.7-6.3,2c2.4,0.5,4.6,1.4,6.3,2.4
		c2.4,1.4,3.6,3.3,3.6,5.2c0,1.6-0.8,3.3-2.5,5.4c0.9,1.3,1.4,2.2,1.4,2.7s-0.2,0.6-0.5,0.6c-0.2,0-0.3-0.2-0.5-0.3
		c-0.5-0.9-0.9-1.6-1.4-2.2c-2.4,2-5.2,3.6-8.8,4.7c-3.3,0.9-6.5,1.4-9.9,1.4c-2.4,0-4.4-0.5-6.6-1.4c-2.7-1.1-4.1-2.7-4.1-4.7
		c0-2.4,1.1-4.3,3.3-5.7c1.9-1.3,4.1-1.9,6.5-2c1.4-3.3,3.2-6.8,4.9-9.9c0.5-1.1,1.4-2.5,2.7-4.6c0.5-0.8,1.4-1.1,2.7-1.1
		c0.5,0,0.6,0.2,0.6,0.5c0,0.2,0,0.3-0.2,0.3c-3.3,4.4-6.1,9.3-9,15c7.9,0.2,13.7,1.9,17.5,5.2c1.1-1.4,1.6-2.8,1.6-4.1
		c0-2.2-1.4-3.9-4.4-5.2c-2.4-0.9-4.7-1.4-7.3-1.4h-1.3c-0.5,0-0.6-0.2-0.6-0.5c0-0.6,0.5-1.1,1.4-1.3c0.5-0.2,1.4-0.2,2.4-0.5
		c4.3-0.8,7.3-2.2,9.1-4.1c0.8-0.8,1.3-1.4,1.3-2c0-1.3-1.6-2.2-4.9-2.8c-2.2-0.5-4.4-0.6-6.8-0.6c-6.1,0-12,1.1-17.5,3.3
		c-0.2,0.2-0.3,0.2-0.5,0.2c-0.3,0-0.5-0.2-0.5-0.5c0-0.5,0.3-0.8,0.6-1.4c0.3-0.6,0.9-0.8,1.4-1.1c3.6-1.4,8.2-2.2,13.7-2.2
		c3.3,0,6.3,0.3,9.1,0.9C294.9,21.3,296.9,22.9,296.9,24.9L296.9,24.9z M291.7,44.2c-1.9-1.6-4.3-3-7.3-3.8
		c-2.8-0.8-5.5-1.4-8.2-1.4h-1.4c-2,4.4-3.2,7.4-3.2,9v0.8c0,0.5-0.2,0.6-0.5,0.6c-0.5,0-0.8-0.5-0.8-1.4c0-1.6,0.9-4.4,2.7-8.8
		c-4.6,0.8-6.9,2.8-6.9,6.3c0,1.6,1.1,2.8,3.2,3.8c1.6,0.6,3.3,1.1,5.2,1.1C282.1,50.6,287.8,48.6,291.7,44.2L291.7,44.2z
		 M309.1,42.6c0,0.3-0.2,0.5-0.5,0.8c-3.2,4.3-5.8,6.3-8,6.3c-1.9,0-2.8-1.1-2.8-3.2c0-1.1,0.5-2.4,1.1-4.3c0.6-1.6,1.3-3,2-3.9
		c0.3-0.3,0.5-0.5,0.6-0.5s0.5,0.2,0.8,0.5s0.5,0.5,0.5,0.9c0,0.2-0.2,0.5-0.3,0.5c-1.7,2.7-2.5,5-2.5,6.8c0,1.3,0.5,1.9,1.4,1.9
		s2.2-0.5,3.3-1.6c0.8-0.6,1.7-1.7,2.7-3c0.8-1.1,1.4-1.6,1.4-1.6C308.9,42.1,309.1,42.3,309.1,42.6L309.1,42.6z M305.4,33.1
		c0,0.5-0.2,0.8-0.5,1.1s-0.6,0.5-1.3,0.5c-0.8,0-1.3-0.5-1.3-1.3c0-0.5,0.2-0.8,0.5-1.1s0.6-0.5,1.3-0.5
		C305.1,31.9,305.4,32.4,305.4,33.1z"/>
	<path class="st0" d="M324.5,42.3c0,0.3-0.2,0.5-0.3,0.9c-2.7,4.3-5.4,6.5-8,6.5c-1.9,0-3-1.1-3-3.3s0.6-4.4,2.2-6.8
		c-0.3,0.2-0.5,0.2-0.6,0.2c-0.5,0-1.1-0.2-1.6-0.5c-0.6-0.5-0.9-0.8-0.9-1.4c-0.5,0.8-1.1,2.2-2.2,3.6c-1.3,2-2.2,3-2.5,3
		c-0.2,0-0.3-0.2-0.3-0.3s0.2-0.3,0.3-0.5c1.4-1.9,2.7-4.3,4.1-7.1c-0.2-0.3-0.2-0.6-0.2-1.1c0-0.8,0.2-1.7,0.5-2.7
		c0.5-1.4,0.8-2,1.4-2c0.5,0,0.6,0.3,0.9,0.9c0.3,0.5,0.5,0.9,0.5,1.4c0,0.8-0.6,2.2-2.2,3.8c0.3,1.1,0.9,1.6,1.7,1.6
		c0.6,0,1.3-0.3,1.7-0.9c0.5-0.6,0.9-1.1,1.3-1.1s0.5,0.2,0.8,0.5s0.5,0.5,0.5,0.9l-1.7,3.5c-1.3,2.4-1.7,4.3-1.7,5.4
		c0,1.1,0.5,1.7,1.7,1.7c0.9,0,2-0.5,3.3-1.6c0.8-0.6,1.7-1.7,2.8-3.2c0.8-1.1,1.4-1.6,1.4-1.6C324.4,42.1,324.5,42.1,324.5,42.3
		L324.5,42.3z"/>
	<path class="st0" d="M333.7,42.6c0,0.3-0.2,0.5-0.5,0.8c-3.2,4.3-5.8,6.3-8,6.3c-1.9,0-2.8-1.1-2.8-3.2c0-1.1,0.5-2.4,1.1-4.3
		c0.6-1.6,1.3-3,2-3.9c0.3-0.3,0.5-0.5,0.6-0.5c0.2,0,0.5,0.2,0.8,0.5s0.5,0.5,0.5,0.9c0,0.2-0.2,0.5-0.3,0.5
		c-1.7,2.7-2.5,5-2.5,6.8c0,1.3,0.5,1.9,1.4,1.9s2.2-0.5,3.3-1.6c0.8-0.6,1.7-1.7,2.7-3c0.8-1.1,1.4-1.6,1.4-1.6
		C333.7,42.1,333.7,42.3,333.7,42.6L333.7,42.6z M330,33.1c0,0.5-0.2,0.8-0.5,1.1s-0.6,0.5-1.3,0.5c-0.8,0-1.3-0.5-1.3-1.3
		c0-0.5,0.2-0.8,0.5-1.1s0.6-0.5,1.3-0.5C329.7,31.9,330,32.4,330,33.1z"/>
	<path class="st0" d="M345.5,42.9c0,0.2,0,0.2-0.2,0.3c-0.5,0.8-1.3,1.4-2.2,2.2c-0.9,0.8-1.9,0.9-2.8,0.9c-0.6,0-1.4-0.2-1.9-0.5
		c-1.6,2.5-3.3,3.8-5,3.8c-1.3,0-1.7-0.6-1.7-2.2c0-2,0.8-4.3,2.5-7.1c-0.2-0.5-0.2-0.8-0.2-1.1c0-1.3,0.5-2.4,1.3-3.6
		s1.9-1.7,3.2-1.7c0.8,0,1.4,0.5,1.9,1.4c0.5,0.8,0.5,1.6,0.5,2.4c0,1.9-0.6,4.3-2.2,7.1c0.5,0.3,1.1,0.5,1.7,0.5
		c1.1,0,2.2-0.5,3.3-1.4c0.9-0.9,1.4-1.4,1.4-1.4C345.3,42.6,345.5,42.6,345.5,42.9L345.5,42.9z M337.6,45c-1.1-0.8-2-1.6-2.5-2.7
		c-1.1,2.2-1.6,3.8-1.6,4.7c0,0.6,0.3,1.1,0.8,1.1s1.1-0.5,1.9-1.3C336.8,46.2,337.3,45.6,337.6,45L337.6,45z M339.3,39
		c0-0.8-0.2-1.4-0.5-2.4c-0.5-1.1-0.8-1.6-1.4-1.6c-0.8,0-1.4,0.5-1.9,1.4c-0.5,0.8-0.5,1.6-0.5,2.4c0.5-0.6,1.1-0.9,1.6-0.9
		s0.9,0.2,1.1,0.5v0.8c0,0.2-0.2,0.2-0.5,0.2c-0.6,0-1.3,0.6-2,2c0.5,1.4,1.3,2.4,2.4,3.3C338.9,42.1,339.3,40.2,339.3,39L339.3,39z
		"/>
	<path class="st0" d="M360.9,42.3c0,0.3-0.2,0.5-0.3,0.9c-0.9,1.6-2.2,3-3.3,4.3c-1.6,1.4-3.3,2.4-4.7,2.4c-1.9,0-3-1.3-3-3.6
		c0-0.5,0.3-1.6,0.8-3.3c-1.3,1.7-2,2.8-2.4,3.3c-1.1,1.4-2.2,2-3.2,2c-1.1,0-1.7-0.9-1.7-3c0-1.1,0.5-2.4,1.1-4.1
		c0.8-1.7,1.6-2.7,2.5-2.7c0.5,0,0.8,0.2,0.8,0.5c0,0-0.5,0.8-1.4,2.4s-1.4,2.7-1.4,3.5c0,1.1,0.3,1.6,0.9,1.6c1.1,0,3.2-2.5,6-7.6
		c0.3-0.5,0.5-1.3,1.1-2c0.3-0.3,0.5-0.5,0.8-0.5s0.5,0.2,0.8,0.5s0.5,0.5,0.5,0.9c0,0-0.6,1.1-1.9,3.5s-1.9,4.3-1.9,5.4
		s0.5,1.7,1.7,1.7c0.9,0,2-0.5,3.3-1.6c0.8-0.6,1.7-1.7,2.8-3.2c0.8-1.1,1.4-1.6,1.4-1.6C360.8,42.1,360.9,42.1,360.9,42.3
		L360.9,42.3z M381.7,20.2c0,2.4-2.2,6-6.5,10.4c-2.8,2.8-6.1,5.7-9.9,8.7c-0.6,1.4-1.3,2.8-1.7,4.3l5.2-5.2
		c2.5-2.4,4.4-3.6,5.7-3.6c0.9,0,1.4,0.6,1.4,2s-0.9,2.7-2.8,3.9c-1.7,1.3-3.3,1.7-4.7,1.7c0.6,3.3,2.2,5,4.3,5c2,0,4.3-1.6,6.6-4.7
		c0.3-0.3,0.5-0.5,0.6-0.5s0.3,0.2,0.3,0.3s-0.2,0.3-0.3,0.5c-0.8,1.3-2,2.4-3.5,3.8c-1.9,1.6-3.3,2.4-4.3,2.4
		c-1.3,0-2.5-0.9-3.8-2.7c-1.3-1.6-1.9-3.2-2-4.4l-2.4,2.8c-0.8,1.1-1.4,2.4-1.6,3.6c-0.5,0.2-0.8,0.3-1.3,0.3
		c-0.8,0-1.1-0.2-1.1-0.5c0-0.8,0.6-2.8,2.2-6.1c2.2-4.9,4.6-9.6,7.3-13.9c4.3-6.8,7.7-10.1,10.4-10.1C381,18,381.7,18.6,381.7,20.2
		L381.7,20.2z M380.5,20.8c0-0.6-0.3-1.1-0.9-1.1c-0.9,0-2.4,0.8-4.3,2.4c-3.3,2.7-6.1,6.9-8.4,12.5c-0.5,1.3-0.8,2-0.8,2.4
		c2.4-1.4,5.2-3.9,8.5-7.3C378.6,25.7,380.5,22.9,380.5,20.8z M373.4,37.4c0-0.6-0.3-1.1-0.6-1.1c-0.6,0-2.5,1.6-5.7,4.7
		c0.2,0.3,0.5,0.5,0.9,0.5c1.1,0,2.2-0.5,3.5-1.4C372.9,39.1,373.4,38.3,373.4,37.4z"/>
</g>
<g>
	<path class="st1" d="M133.1,77.4c0.7,0.4,1.5,0.7,2.3,0.9c0.6,0.2,1.2,0.4,1.8,0.5c-0.2-0.2-0.4-0.4-0.6-0.5h0.1
		c0.5,0.1,0.9-0.1,1.5-0.1c0-0.1-0.2-0.3-0.3-0.5c-0.2-0.3-0.3-0.7-0.5-1.1c-0.1-0.3,0-0.3,0.3-0.2c0.9,0.3,1.8,0.5,2.8,0.5
		c0.3,0,0.7,0,0.7-0.1c0-0.2-0.1-0.5-0.2-0.6c-0.1-0.3-0.2-0.6-0.3-0.9c-0.2-0.6-0.5-1.2-0.8-1.7c-0.2-0.3-0.4-0.7-0.6-0.8
		c1.3,0,2.7,0.6,3.9,0c-0.2-0.4-0.2-0.9-0.5-1.3c-0.4-0.8-0.9-1.3-1.4-2l-0.3-0.4c-0.2-0.4-0.5-0.8-0.9-1.1c-0.5-0.4-0.9-1-1.4-1.5
		c-0.5-0.4-1.1-0.7-1.8-0.9c-1-0.2-2-0.2-3,0.2c-1.6-0.2-3.5-0.3-3.9-0.2h-0.1c-0.1,0-0.3,0.2-0.4,0.3c-0.4,0.2-0.8,0.5-0.9,1
		c-0.1,0.3,0,0.6,0,0.9c0,0.4,0,0.7,0.1,1.2c0.1,0.4,0,0.9,0.1,1.4v0.2c-0.2,0.9,0,1.8,0.3,2.6C129.9,75.1,131.3,76.6,133.1,77.4
		L133.1,77.4z"/>
	<path class="st2" d="M140.7,66.9c0.4-0.1,1,0.6,1.2,0.8c0.6,0.7,1.3,1.3,1.9,2c0.5,0.7,1,1.3,1.4,2c0.2,0.4,0.2,0.9,0.5,1.3
		c-1.2,0.6-2.7,0.1-3.9,0c0.2,0.2,0.4,0.6,0.6,0.8c0.3,0.5,0.6,1.2,0.8,1.7c0.1,0.3,0.2,0.6,0.3,0.9c0,0.1,0.3,0.5,0.2,0.6
		c0,0.2-0.4,0.1-0.7,0.1c-0.9,0-1.8-0.2-2.8-0.5c-0.3-0.1-0.4-0.2-0.3,0.2c0.1,0.3,0.3,0.7,0.5,1.1c0.1,0.1,0.2,0.3,0.3,0.5
		c-0.5,0-0.9,0.2-1.5,0.1c-0.5-0.1-1-0.4-1.4-0.6c-0.7-0.4-1.4-0.9-2-1.4c-1.1-1.1-1.7-2.4-1.7-4c0-1.2,0.4-2.7,1.3-3.7
		c0.7-0.8,1.8-1.5,2.7-2c0.5-0.3,1.3-0.5,2-0.4l0.5,0.1c0.1,0,0.3,0,0.4,0"/>
	<path class="st3" d="M139.8,67.2c0.4-0.1,0.8,0.5,1,0.7c0.5,0.5,1.2,1.1,1.6,1.7c0.4,0.6,0.8,1.1,1.2,1.8c0.2,0.3,0.2,0.8,0.4,1.1
		c-1,0.5-2.3,0.1-3.3,0c0.2,0.2,0.4,0.5,0.5,0.7c0.3,0.5,0.5,1,0.7,1.5l0.3,0.8c0,0.1,0.2,0.4,0.2,0.5c0,0.2-0.4,0.1-0.6,0.1
		c-0.8,0.1-1.6-0.2-2.3-0.4c-0.3-0.1-0.4-0.1-0.3,0.1c0.1,0.3,0.2,0.6,0.4,0.9c0,0.1,0.2,0.3,0.2,0.4c-0.5,0-0.8,0.2-1.3,0
		c-0.5-0.1-0.8-0.3-1.3-0.5c-0.6-0.3-1.2-0.7-1.7-1.2c-1-1-1.5-2-1.4-3.4c0-1.1,0.4-2.3,1.1-3.1c0.6-0.7,1.5-1.3,2.3-1.7
		c0.4-0.2,1.1-0.4,1.7-0.3l0.4,0.1C139.6,67.2,139.7,67.1,139.8,67.2"/>
	<path class="st4" d="M134.8,68.9c2.1-1.5,4.8-1.5,6.2,0.1c1.3,1.6,0.8,4.1-1.3,5.7c-2.1,1.5-4.8,1.5-6.2-0.1S132.7,70.5,134.8,68.9
		z"/>
	<path class="st5" d="M133.5,74.5c-1.3-1.6,3.2,1.3,5.3-0.2c2-1.5,0.9-6.9,2.2-5.3s0.8,4.1-1.3,5.6
		C137.6,76.1,134.8,76.1,133.5,74.5L133.5,74.5z"/>
	<path class="st6" d="M137.9,75.9c0.3-1.2,0.5-2.4,0.5-3.6c0-0.5-0.1-1.1-0.3-1.6c-0.2-0.3-0.4-0.5-0.5-0.8c0.3,0,0.6,0.1,1,0.1
		c0.7,0,1.2,0.1,1.9,0.3c0.6,0.2,1.3,0.2,1.9,0.3c0.3,0,0.9,0.2,1.1,0l-0.2-1c-0.2-0.5-0.6-0.9-0.9-1.3c-0.5-0.4-0.9-1-1.4-1.5
		c-0.5-0.4-1.1-0.7-1.8-0.9c-2.4-0.5-4.6,0.6-6.2,2.1c-0.9,0.8-1.6,1.6-1.8,2.8c-0.2,0.9,0,1.8,0.3,2.6c0.6,1.8,2,3.3,3.8,4.2
		c0.7,0.4,1.5,0.7,2.3,0.9c0.6,0.2,1.1,0.4,1.8,0.5c-0.6-0.5-1.1-1.2-1.7-1.9c-0.3-0.3-0.5-0.6-0.7-0.9c-0.2-0.2-0.4-0.6-0.7-0.8
		C137,75.8,137.4,76,137.9,75.9l0.1-0.2"/>
	<path class="st7" d="M136.5,66.5c0.2-0.2,0.6-0.2,0.8-0.1c0.6,0,1.1,0.1,1.7,0.2c0.7,0.2,1.3,0.4,1.9,0.8c0.4,0.2,0.7,0.6,1.1,0.9
		c-0.2,0-0.5-0.1-0.8-0.3c-0.4-0.1-0.9-0.3-1.4-0.4c-0.9-0.3-2-0.8-3-0.8c0.1,0.1,0.3,0.1,0.5,0.1l0.9,0.3c0.6,0.3,1.3,0.8,1.7,1.4
		c-0.2,0-0.6-0.2-0.7-0.3c-0.4-0.2-0.9-0.3-1.4-0.5c-0.6-0.2-1.3-0.3-2-0.5c0.2,0.3,0.6,0.4,0.8,0.6c0.3,0.3,0.7,0.6,1,1
		c-0.4-0.3-0.9-0.5-1.3-0.7c-0.3-0.2-0.8-0.5-1.2-0.5c-0.1,0.3,0.5,0.9,0.6,1.1c0.2,0.3,0.8,1.4,0.5,1.6c-0.5-0.3-0.8-0.9-1.1-1.4
		c-0.1-0.1-0.6-0.8-0.7-0.4c0,0.1,0.1,0.3,0.1,0.5c0.1,0.3,0.2,0.6,0.4,0.9c0.4,1,0.6,2.1,0.9,3.1c0,0.2,0.6,1.7,0.3,1.8
		c-0.3,0.1-0.9-0.9-1-1.1c-0.5-0.6-0.8-1.4-1.1-2.1c-0.2-0.4-0.3-1-0.6-1.4c-0.2,0.2,0,0.5,0,0.7c0,0.5,0.1,1,0.2,1.5
		c0.1,0.5,0.2,1,0.4,1.4c0.1,0.3,0.3,0.7,0.2,0.9c-0.5-0.4-0.6-1.1-0.8-1.7c-0.1-0.4-0.3-0.8-0.5-1.2c-0.1-0.3-0.1-0.6-0.3-0.8
		c-0.2,0.2-0.1,0.5-0.1,0.7c0,0.6,0.1,1.1,0.3,1.7c0.1,0.7,0.4,1.4,0.6,2.2c-0.3,0-0.5-1.1-0.6-1.4c-0.2-0.5-0.4-1-0.5-1.5
		c-0.3-1-0.2-1.8,0.2-2.7c0.4-0.9,1.2-1.5,1.8-2.3c0.5-0.5,1.1-0.9,1.7-1.1c0.2-0.1,0.6-0.2,0.6-0.4"/>
	<path class="st8" d="M140.6,73.3c0.4-0.2,0.6-0.9,0.7-1.3c0.1-0.4-0.1-0.9-0.6-0.5c-0.4,0.3-1.1,1.9-0.6,2.3
		C140.4,73.7,140.6,73.4,140.6,73.3"/>
	<path class="st9" d="M132.5,65.9c0.6,0,6.2,0.1,5.7,1c-0.1,0.2-0.9,0.1-1.1,0.1c-0.5,0-0.9,0-1.3,0.1c-0.3,0-0.7,0.1-0.6,0.4
		c0.1,0.4,0.5,0.8,0.7,1.2c0.3,1.2-1.3-0.5-1.5-0.4c-0.4,0-0.4,0.6-0.3,0.8c0,0.5,0.1,1,0,1.5c-0.1,0.4-0.3,0.5-0.5,0.1
		c-0.1-0.2-0.3-1.2-0.6-1s-0.1,1.2-0.1,1.4c0.1,0.4,0.2,1.1-0.1,1.5c-0.6,0.8-0.9-0.2-1-0.7c-0.2-0.8-0.3-1.6-0.3-2.4
		c0-0.4,0-0.7-0.1-1.2c0-0.3-0.1-0.6,0-0.9c0.1-0.5,0.5-0.7,0.9-1C132.1,66.1,132.3,65.8,132.5,65.9"/>
</g>
<g>
	<path class="st1" d="M272.8,78.6c0.7-1.1,1.3-2.1,1.9-3.2c0.4-0.9,0.9-1.7,1.2-2.5c-0.3,0.3-0.6,0.5-1,0.7c0-0.1,0-0.1,0.1-0.2
		c0.3-0.8,0.1-1.4,0.1-2.2c-0.3,0-0.6,0.2-0.8,0.3c-0.6,0.2-1.2,0.3-1.8,0.5c-0.6,0.1-0.5,0-0.2-0.5c0.6-1.3,1.2-2.5,1.3-4
		c0-0.4,0.2-1-0.1-1.1c-0.3-0.1-0.8,0.1-1.1,0.2c-0.5,0.1-1,0.1-1.5,0.2c-1,0.2-2,0.4-2.8,0.8c-0.4,0.2-1.2,0.4-1.5,0.7
		c0.2-1.9,1.3-3.9,0.6-5.8c-0.7,0.2-1.5,0.2-2.2,0.5c-1.2,0.4-2.3,1.1-3.4,1.7L261,65c-0.7,0.2-1.3,0.6-1.9,1.1
		c-0.8,0.6-1.8,1.1-2.6,1.8c-0.8,0.7-1.3,1.6-1.7,2.5c-0.6,1.5-0.6,3-0.2,4.5c-0.6,2.3-1,5.2-1,5.7v0.1c-0.1,0.2,0.3,0.5,0.4,0.8
		c0.4,0.6,0.7,1.3,1.5,1.6c0.5,0.1,1,0.1,1.5,0.1c0.6,0,1.3,0.1,1.9,0.2c0.8,0.1,1.5,0.1,2.2,0.1c0.1,0,0.2,0.1,0.4,0.1
		c1.4,0.5,2.7,0.3,4.2,0.1C268.5,83,271.2,81,272.8,78.6L272.8,78.6z"/>
	<path class="st2" d="M257.3,65.2c-0.1-0.6,1.1-1.3,1.5-1.6c1.1-0.8,2.3-1.7,3.4-2.4c1.2-0.6,2.3-1.2,3.4-1.7
		c0.7-0.3,1.5-0.2,2.2-0.5c0.8,1.9-0.3,4-0.6,5.8c0.3-0.4,1.1-0.6,1.5-0.7c0.9-0.4,2-0.6,2.8-0.8c0.5-0.1,1-0.1,1.5-0.2
		c0.3,0,0.8-0.3,1.1-0.2c0.3,0.1,0.1,0.7,0.1,1.1c-0.1,1.4-0.7,2.7-1.3,4c-0.2,0.5-0.4,0.7,0.2,0.5c0.6-0.1,1.2-0.3,1.8-0.5
		c0.3-0.1,0.6-0.3,0.8-0.3c-0.1,0.8,0.1,1.4-0.1,2.2c-0.2,0.8-0.7,1.4-1.1,2.1c-0.7,1-1.6,1.9-2.6,2.6c-2,1.5-4,2.1-6.6,1.8
		c-2-0.3-4.2-1.3-5.6-2.6c-1.2-1.3-2-2.8-2.6-4.5c-0.3-0.9-0.6-2.2-0.4-3c0.1-0.2,0.2-0.4,0.2-0.7c0-0.2,0-0.5,0.1-0.6"/>
	<path class="st3" d="M257.7,66.5c-0.1-0.5,1-1.1,1.3-1.4c1-0.7,1.9-1.5,2.9-2s1.9-1,2.9-1.4c0.6-0.2,1.3-0.2,1.9-0.4
		c0.6,1.6-0.3,3.3-0.5,4.9c0.3-0.3,0.9-0.5,1.3-0.6c0.8-0.3,1.7-0.5,2.5-0.7c0.4-0.1,0.9-0.1,1.3-0.2c0.2,0,0.7-0.2,0.9-0.1
		c0.3,0.1,0.1,0.6,0.1,0.9c-0.1,1.2-0.6,2.4-1.1,3.3c-0.2,0.4-0.3,0.6,0.2,0.4c0.5-0.1,1-0.2,1.5-0.4c0.2-0.1,0.5-0.2,0.7-0.3
		c-0.1,0.7,0.1,1.2-0.1,1.9c-0.2,0.6-0.6,1.2-1,1.8c-0.6,0.9-1.4,1.7-2.2,2.3c-1.7,1.3-3.4,1.8-5.5,1.5c-1.7-0.2-3.5-1.1-4.7-2.3
		c-1-1.1-1.7-2.5-2.3-3.8c-0.3-0.7-0.5-1.8-0.3-2.5c0-0.2,0.1-0.4,0.2-0.6c0-0.2,0-0.4,0.1-0.5"/>
	<path class="st4" d="M259.5,74.3c-2.1-3.4-1.6-7.5,1.1-9.2c2.7-1.7,6.6-0.3,8.7,3.1s1.6,7.5-1.1,9.2S261.6,77.7,259.5,74.3z"/>
	<path class="st5" d="M268.2,77.4c-2.7,1.7,2.6-4.5,0.4-7.9c-2.1-3.4-10.8-2.6-8-4.4c2.7-1.7,6.7-0.3,8.7,3.1
		C271.5,71.6,271,75.7,268.2,77.4L268.2,77.4z"/>
	<path class="st6" d="M271.2,71c-1.9-0.7-3.6-1.3-5.7-1.5c-0.8-0.1-1.8-0.1-2.6,0.2c-0.5,0.1-0.9,0.5-1.4,0.5c0.1-0.5,0.3-1,0.4-1.5
		c0.1-1.1,0.3-1.9,0.7-2.8c0.3-0.9,0.5-1.9,0.7-2.8c0.1-0.4,0.5-1.4,0.2-1.7c-0.5,0.1-1.1,0.1-1.6,0.2c-0.8,0.2-1.5,0.7-2.2,1.1
		c-0.8,0.6-1.8,1.1-2.6,1.8c-0.8,0.7-1.3,1.6-1.7,2.5c-1.3,3.4,0.2,7,2.5,9.7c1.2,1.5,2.3,2.6,4.1,3.2c1.4,0.5,2.7,0.3,4.2,0.1
		c2.9-0.4,5.6-2.4,7.3-4.8c0.7-1.1,1.3-2.1,1.9-3.2c0.4-0.9,0.9-1.7,1.2-2.5c-1,0.8-2.3,1.5-3.2,2.2c-0.5,0.3-1,0.6-1.5,1
		c-0.5,0.3-1,0.5-1.4,0.8c0.4-0.8,0.8-1.5,0.8-2.3c-0.1-0.1-0.3-0.1-0.4-0.1"/>
	<path class="st7" d="M256.1,71.3c-0.3-0.3-0.1-0.9-0.1-1.3c0.1-0.9,0.3-1.7,0.6-2.5c0.4-1,0.9-1.9,1.6-2.5c0.5-0.5,1.1-0.9,1.6-1.4
		c0,0.3-0.3,0.7-0.5,1.1c-0.3,0.7-0.6,1.3-0.9,2c-0.6,1.3-1.7,2.8-1.8,4.3c0.2-0.2,0.3-0.5,0.3-0.7c0.2-0.5,0.5-0.9,0.7-1.3
		c0.6-0.9,1.6-1.8,2.6-2.3c0,0.3-0.4,0.8-0.6,1.1c-0.4,0.6-0.7,1.4-1,2.1c-0.4,1-0.8,2-1.1,2.8c0.4-0.2,0.8-0.8,1.2-1.1
		c0.5-0.5,1.1-0.9,1.7-1.3c-0.5,0.6-0.9,1.3-1.4,1.9c-0.3,0.4-1,1.1-1.1,1.6c0.5,0.1,1.5-0.6,1.9-0.7c0.5-0.2,2.4-0.9,2.6-0.3
		c-0.6,0.6-1.7,1-2.4,1.4c-0.2,0.1-1.5,0.7-0.8,1c0.2,0.1,0.6-0.1,0.7-0.1c0.5-0.1,1-0.2,1.6-0.4c1.7-0.4,3.3-0.5,5.1-0.8
		c0.3,0,2.6-0.5,2.8,0c0.1,0.4-1.6,1.1-1.9,1.3c-1.1,0.6-2.3,0.9-3.4,1.3c-0.7,0.2-1.7,0.2-2.3,0.6c0.2,0.3,0.8,0.2,1.1,0.2h2.4
		l2.4-0.3c0.4,0,1.1-0.3,1.5-0.1c-0.8,0.6-1.9,0.7-2.8,0.9c-0.7,0.2-1.4,0.3-2,0.4c-0.4,0.1-0.9,0.1-1.3,0.2
		c0.3,0.3,0.8,0.2,1.2,0.2c0.9,0,1.8,0.1,2.6,0c1.2-0.1,2.3-0.3,3.4-0.4c-0.1,0.4-1.9,0.6-2.3,0.7c-0.8,0.2-1.7,0.4-2.5,0.5
		c-1.6,0.2-2.8,0-4.2-0.9c-1.4-0.8-2.3-2.2-3.3-3.2c-0.7-0.8-1.3-1.9-1.6-2.8C256.4,72,256.2,71.3,256.1,71.3"/>
	<path class="st8" d="M267.5,66.6c-0.3-0.6-1.3-1.1-1.9-1.3c-0.6-0.2-1.5,0-1,0.8c0.4,0.6,2.7,2.1,3.4,1.4c0-0.5-0.5-0.9-0.9-1.1"/>
	<path class="st9" d="M254.5,77.2c0-1,1.2-9.2,2.6-8.3c0.3,0.2,0,1.4-0.1,1.7c-0.1,0.7-0.1,1.4-0.1,2.1c0,0.4-0.1,1.1,0.5,1
		c0.6,0,1.3-0.6,2-0.7c2.1-0.3-0.9,1.8-0.9,2.2c-0.1,0.6,0.8,0.6,1.2,0.7c0.8,0.1,1.6,0,2.4,0.3c0.7,0.2,0.7,0.6,0,0.8
		c-0.3,0.1-2,0.3-1.8,0.7c0.2,0.5,1.9,0.4,2.3,0.5c0.8,0,1.8-0.1,2.4,0.5c1.2,1-0.5,1.3-1.4,1.4c-1.3,0.1-2.6,0.1-3.8,0
		c-0.6-0.1-1.3-0.1-1.9-0.2c-0.5,0-1,0-1.5-0.1c-0.8-0.2-1.1-0.9-1.5-1.5C254.7,77.8,254.4,77.5,254.5,77.2"/>
</g>
<g>
	<path class="st1" d="M279.7,86.9c0.7,0,1.3-0.1,2-0.3c0.5-0.1,1-0.1,1.4-0.3c-0.2-0.1-0.4-0.1-0.6-0.2h0.1c0.4-0.1,0.6-0.4,1-0.7
		c-0.1-0.1-0.2-0.2-0.4-0.3c-0.2-0.2-0.5-0.4-0.8-0.6s-0.1-0.2,0.2-0.3c0.7-0.1,1.5-0.3,2.1-0.8c0.2-0.1,0.4-0.2,0.4-0.4
		c0-0.2-0.3-0.3-0.4-0.4l-0.6-0.6c-0.4-0.4-0.8-0.7-1.3-1c-0.2-0.1-0.6-0.4-0.8-0.4c0.9-0.5,2.1-0.7,2.6-1.7
		c-0.3-0.2-0.6-0.6-0.9-0.8c-0.6-0.4-1.2-0.7-1.8-1c-0.1,0-0.2-0.1-0.3-0.2c-0.3-0.2-0.7-0.4-1-0.5c-0.5-0.2-1-0.4-1.6-0.5
		s-1.1,0-1.6,0.1c-0.8,0.3-1.5,0.8-2,1.4c-1.1,0.5-2.5,1.3-2.7,1.5h-0.1c-0.1,0-0.2,0.3-0.2,0.4c-0.1,0.4-0.3,0.7-0.2,1.1
		c0.1,0.3,0.3,0.4,0.4,0.7c0.2,0.3,0.4,0.6,0.5,0.9c0.2,0.3,0.4,0.7,0.7,1v0.2c0.2,0.7,0.8,1.4,1.3,1.9
		C276.4,86.4,278.1,86.9,279.7,86.9L279.7,86.9z"/>
	<path class="st2" d="M280.3,75.5c0.2-0.3,0.9,0.1,1.1,0.1c0.7,0.2,1.5,0.4,2.1,0.8c0.6,0.3,1.2,0.6,1.8,1c0.4,0.2,0.6,0.6,0.9,0.8
		c-0.6,0.9-1.8,1.2-2.6,1.7c0.2,0,0.6,0.3,0.8,0.4c0.5,0.2,0.9,0.7,1.3,1l0.6,0.6c0.1,0.1,0.4,0.3,0.4,0.4c0,0.2-0.3,0.3-0.4,0.4
		c-0.6,0.4-1.4,0.6-2.1,0.8c-0.3,0-0.4,0.1-0.2,0.3c0.3,0.2,0.5,0.5,0.8,0.6c0.1,0.1,0.3,0.2,0.4,0.3c-0.3,0.2-0.5,0.5-1,0.7
		c-0.4,0.1-0.8,0.2-1.2,0.2c-0.6,0-1.3-0.1-1.9-0.3c-1.2-0.4-2.2-1.1-2.9-2.3c-0.6-1-0.9-2.3-0.7-3.4c0.1-1,0.6-1.9,1-2.7
		c0.2-0.4,0.7-1,1.2-1.2c0.1,0,0.3,0,0.4-0.1C280.2,75.6,280.3,75.5,280.3,75.5"/>
	<path class="st3" d="M279.9,76.1c0.2-0.2,0.8,0.1,1,0.1c0.6,0.2,1.2,0.3,1.8,0.7c0.5,0.3,1,0.5,1.5,0.8c0.3,0.2,0.5,0.5,0.8,0.7
		c-0.5,0.8-1.5,1-2.2,1.4c0.2,0,0.5,0.2,0.6,0.3c0.4,0.2,0.7,0.5,1.1,0.9c0.2,0.1,0.3,0.3,0.5,0.5c0.1,0.1,0.3,0.2,0.3,0.3
		c0,0.2-0.2,0.3-0.4,0.3c-0.5,0.4-1.2,0.6-1.8,0.7c-0.3,0-0.4,0.1-0.1,0.2c0.2,0.2,0.4,0.4,0.6,0.6c0.1,0.1,0.2,0.1,0.3,0.2
		c-0.3,0.2-0.4,0.5-0.8,0.6s-0.7,0.1-1,0.1c-0.5,0-1.1-0.1-1.6-0.2c-1.1-0.4-1.9-0.9-2.5-2c-0.5-0.8-0.7-1.9-0.6-2.8
		c0.1-0.8,0.5-1.6,0.9-2.3c0.2-0.4,0.6-0.8,1-1c0.1,0,0.2,0,0.3-0.1C279.8,76.1,279.8,76.1,279.9,76.1"/>
	<path class="st4" d="M277.1,79.5c0.8-2.1,2.7-3.2,4.3-2.6s2.3,2.9,1.5,4.9c-0.8,2.1-2.7,3.2-4.3,2.6
		C277.1,83.8,276.4,81.6,277.1,79.5z"/>
	<path class="st5" d="M278.7,84.4c-1.6-0.6,2.8-0.4,3.5-2.4c0.7-2.1-2.4-5.7-0.8-5c1.6,0.6,2.3,2.9,1.6,4.9
		C282.2,83.9,280.3,85.1,278.7,84.4z"/>
	<path class="st6" d="M282.4,83.6c-0.3-1.1-0.6-2.1-1.2-3c-0.2-0.4-0.6-0.8-0.9-1.1c-0.2-0.2-0.5-0.2-0.7-0.4
		c0.2-0.2,0.5-0.1,0.7-0.4c0.5-0.3,0.9-0.5,1.4-0.7c0.5-0.1,1-0.4,1.4-0.7c0.2-0.1,0.7-0.2,0.8-0.5c-0.2-0.2-0.4-0.5-0.6-0.7
		c-0.3-0.3-0.8-0.4-1.2-0.6c-0.5-0.2-1-0.4-1.6-0.5s-1.1,0-1.6,0.1c-1.9,0.6-2.9,2.4-3.4,4.4c-0.2,1-0.4,1.9,0,2.9
		c0.2,0.7,0.8,1.4,1.3,1.9c1.2,1.2,2.8,1.7,4.4,1.6c0.7,0,1.3-0.1,2-0.3c0.5-0.1,1-0.1,1.4-0.3c-0.7-0.2-1.3-0.5-2-0.7l-0.9-0.3
		c-0.3-0.1-0.5-0.2-0.8-0.4c0.5-0.1,0.9-0.2,1.3-0.4v-0.2"/>
	<path class="st7" d="M277.3,76.9c0.1-0.2,0.4-0.3,0.5-0.4c0.4-0.2,0.8-0.4,1.3-0.6c0.6-0.2,1.1-0.2,1.6-0.2c0.4,0,0.7,0.2,1.1,0.2
		c-0.1,0.1-0.4,0.1-0.6,0.1c-0.4,0.1-0.8,0.2-1.1,0.3c-0.8,0.2-1.7,0.2-2.4,0.6c0.1,0,0.3,0,0.4-0.1c0.3,0,0.5-0.1,0.8-0.1
		c0.6,0,1.2,0.1,1.8,0.4c-0.1,0.1-0.5,0.1-0.6,0.1c-0.4,0.1-0.8,0.2-1.2,0.3c-0.5,0.1-1.1,0.3-1.6,0.5c0.2,0.1,0.6,0.1,0.8,0.1
		c0.4,0,0.7,0.2,1.1,0.4c-0.4,0-0.8,0-1.2,0c-0.3,0-0.8-0.1-1,0.1c0.1,0.3,0.7,0.5,0.9,0.6c0.2,0.1,1.1,0.7,1,1.1
		c-0.4,0-0.9-0.4-1.3-0.6c-0.1-0.1-0.8-0.4-0.7,0c0,0.1,0.2,0.2,0.3,0.3c0.2,0.2,0.4,0.4,0.6,0.6c0.7,0.6,1.3,1.3,2,2
		c0.1,0.1,1.1,1,0.9,1.3c-0.1,0.2-1-0.3-1.1-0.4c-0.6-0.3-1.1-0.7-1.7-1.1c-0.3-0.2-0.6-0.7-1-0.8c0,0.2,0.2,0.4,0.3,0.6
		c0.3,0.3,0.5,0.7,0.8,1.1c0.3,0.3,0.6,0.6,0.9,1c0.1,0.1,0.5,0.4,0.5,0.6c-0.5-0.1-0.9-0.6-1.3-0.9c-0.3-0.2-0.6-0.5-0.8-0.7
		c-0.1-0.2-0.3-0.4-0.5-0.5c0,0.2,0.2,0.4,0.3,0.6c0.3,0.4,0.6,0.8,0.9,1.2c0.4,0.5,0.9,1,1.3,1.4c-0.2,0.1-0.9-0.6-1-0.8
		c-0.4-0.3-0.7-0.6-1-0.9c-0.6-0.7-0.9-1.3-1-2.1s0.2-1.7,0.3-2.6c0.1-0.6,0.4-1.2,0.7-1.6c0.1-0.1,0.3-0.4,0.3-0.6"/>
	<path class="st8" d="M283.1,80.5c0.2-0.3,0-1-0.1-1.3s-0.5-0.6-0.6-0.2s0,1.9,0.5,2c0.2-0.2,0.2-0.5,0.2-0.8"/>
	<path class="st9" d="M274.3,78.2c0.4-0.3,4.3-2.6,4.4-1.6c0,0.2-0.6,0.4-0.8,0.5c-0.3,0.2-0.6,0.4-0.9,0.6
		c-0.2,0.1-0.5,0.3-0.3,0.6c0.2,0.3,0.7,0.4,1,0.7c0.8,0.9-1.1,0.2-1.2,0.3c-0.3,0.2,0,0.6,0.1,0.8c0.2,0.4,0.5,0.7,0.6,1.1
		s0,0.5-0.3,0.3c-0.2-0.1-0.7-0.8-0.9-0.6c-0.1,0.2,0.4,1,0.5,1.1c0.2,0.3,0.6,0.8,0.6,1.2c0,0.9-0.7,0.2-1-0.1
		c-0.5-0.5-0.8-1.1-1.2-1.7c-0.2-0.3-0.4-0.6-0.5-0.9c-0.1-0.2-0.3-0.4-0.4-0.7c-0.2-0.4,0-0.8,0.2-1.1
		C274.1,78.5,274.1,78.2,274.3,78.2"/>
</g>
<rect x="150.2" y="55.7" class="st9" width="229.9" height="1.7"/>
<g>
	<path class="st0" d="M159,66c0.6,0.8,0.8,2,0.8,3.5c0,1.5-0.3,2.7-0.9,3.5c-0.6,0.9-1.4,1.3-2.5,1.3c-0.6,0-1.1-0.1-1.5-0.4
		c-0.5-0.2-0.8-0.6-1.1-1v4.6l-0.8,0.1V64.9h0.7l0.1,1.4c0.4-0.5,0.8-0.9,1.2-1.1c0.5-0.3,1-0.4,1.6-0.4
		C157.6,64.7,158.4,65.1,159,66z M158.3,72.5c0.5-0.7,0.7-1.7,0.7-3.1c0-2.7-0.9-4-2.6-4c-0.6,0-1.1,0.1-1.5,0.4
		c-0.4,0.3-0.8,0.7-1.2,1.2v5c0.3,0.5,0.7,0.8,1.1,1.1c0.4,0.3,0.9,0.4,1.4,0.4C157.1,73.5,157.8,73.2,158.3,72.5z"/>
	<path class="st0" d="M168.8,65.5c0.4,0.5,0.6,1.2,0.6,2.1v6.5h-0.8v-6.4c0-1.5-0.6-2.2-1.8-2.2c-0.6,0-1.2,0.2-1.6,0.5
		c-0.5,0.3-0.9,0.8-1.4,1.5v6.7H163V61.2l0.8-0.1v5.5c0.9-1.2,1.9-1.8,3.1-1.8C167.7,64.7,168.4,65,168.8,65.5z"/>
	<path class="st0" d="M179.1,66c0.7,0.8,1,2,1,3.5c0,1.5-0.3,2.7-1,3.5c-0.7,0.9-1.6,1.3-2.8,1.3c-1.2,0-2.1-0.4-2.8-1.3
		c-0.7-0.8-1-2-1-3.5c0-1.5,0.3-2.7,1-3.5c0.7-0.8,1.6-1.3,2.8-1.3C177.5,64.7,178.4,65.2,179.1,66z M174.1,66.5
		c-0.5,0.7-0.8,1.7-0.8,3c0,1.3,0.3,2.3,0.8,3c0.5,0.7,1.2,1.1,2.2,1.1c0.9,0,1.6-0.4,2.2-1.1c0.5-0.7,0.8-1.7,0.8-3.1
		c0-1.3-0.3-2.3-0.8-3c-0.5-0.7-1.2-1-2.2-1C175.3,65.4,174.6,65.8,174.1,66.5z"/>
	<path class="st0" d="M187.2,73.7c-0.6,0.4-1.2,0.6-1.9,0.6c-0.7,0-1.2-0.2-1.6-0.6c-0.4-0.4-0.6-1-0.6-1.8v-6.3h-1.5v-0.7h1.5v-2.2
		l0.8-0.1v2.3h2.4l-0.1,0.7h-2.3v6.3c0,1.1,0.5,1.7,1.4,1.7c0.5,0,1-0.1,1.5-0.4L187.2,73.7z"/>
	<path class="st0" d="M194.7,66c0.7,0.8,1,2,1,3.5c0,1.5-0.3,2.7-1,3.5c-0.7,0.9-1.6,1.3-2.8,1.3c-1.2,0-2.1-0.4-2.8-1.3
		c-0.7-0.8-1-2-1-3.5c0-1.5,0.3-2.7,1-3.5c0.7-0.8,1.6-1.3,2.8-1.3C193.1,64.7,194,65.2,194.7,66z M189.7,66.5
		c-0.5,0.7-0.8,1.7-0.8,3c0,1.3,0.3,2.3,0.8,3c0.5,0.7,1.2,1.1,2.2,1.1c0.9,0,1.6-0.4,2.2-1.1c0.5-0.7,0.8-1.7,0.8-3.1
		c0-1.3-0.3-2.3-0.8-3c-0.5-0.7-1.2-1-2.2-1C191,65.4,190.2,65.8,189.7,66.5z"/>
	<path class="st0" d="M205.4,65c-0.5,0.2-1.4,0.3-2.5,0.3c1,0.5,1.5,1.3,1.5,2.6c0,0.9-0.3,1.6-0.9,2.2c-0.6,0.5-1.4,0.8-2.4,0.8
		c-0.4,0-0.8-0.1-1.2-0.2c-0.2,0.1-0.4,0.3-0.6,0.5s-0.2,0.4-0.2,0.6c0,0.7,0.5,1,1.5,1h1.5c0.9,0,1.6,0.2,2.1,0.6
		c0.5,0.4,0.8,1,0.8,1.6c0,0.8-0.3,1.5-1,1.9c-0.6,0.5-1.6,0.7-2.9,0.7c-1.3,0-2.3-0.2-2.9-0.6c-0.6-0.4-0.9-1.1-0.9-2h0.8
		c0,0.5,0.1,0.8,0.3,1.1c0.2,0.3,0.5,0.5,0.9,0.6c0.4,0.1,1,0.2,1.8,0.2c2,0,3-0.6,3-1.8c0-0.5-0.2-0.9-0.6-1.2
		c-0.4-0.3-0.9-0.4-1.6-0.4h-1.5c-0.7,0-1.3-0.1-1.6-0.4c-0.4-0.3-0.6-0.7-0.6-1.1c0-0.6,0.3-1.1,1-1.5c-0.5-0.3-0.9-0.6-1.2-1
		c-0.2-0.4-0.4-0.9-0.4-1.6c0-0.9,0.3-1.6,0.9-2.2c0.6-0.6,1.4-0.8,2.4-0.8c1.1,0,2,0,2.5-0.1c0.5-0.1,1-0.2,1.5-0.4L205.4,65z
		 M199.3,66c-0.4,0.4-0.6,1-0.6,1.8c0,0.8,0.2,1.4,0.7,1.8c0.4,0.4,1,0.6,1.8,0.6c0.8,0,1.4-0.2,1.8-0.6c0.4-0.4,0.6-1,0.6-1.8
		c0-0.8-0.2-1.4-0.6-1.8c-0.4-0.4-1-0.6-1.8-0.6C200.4,65.4,199.7,65.6,199.3,66z"/>
	<path class="st0" d="M211.8,64.8l-0.2,0.8c-0.2-0.1-0.5-0.1-0.8-0.1c-0.6,0-1.2,0.2-1.6,0.7c-0.4,0.5-0.7,1.2-1,2.2v5.7h-0.8v-9.2
		h0.7l0.1,2.1c0.2-0.8,0.6-1.4,1-1.7c0.4-0.4,1-0.6,1.6-0.6C211.3,64.7,211.6,64.8,211.8,64.8z"/>
	<path class="st0" d="M219.1,73.2c0.1,0.2,0.3,0.4,0.6,0.5l-0.2,0.6c-0.4-0.1-0.7-0.3-0.9-0.5c-0.2-0.2-0.3-0.6-0.4-1.1
		c-0.7,1.1-1.6,1.6-2.9,1.6c-0.9,0-1.6-0.2-2.1-0.7c-0.5-0.5-0.8-1.2-0.8-2c0-0.9,0.3-1.7,1-2.2c0.7-0.5,1.6-0.8,2.7-0.8h1.9v-1
		c0-0.8-0.2-1.3-0.5-1.7c-0.3-0.4-0.9-0.5-1.7-0.5c-0.7,0-1.6,0.2-2.5,0.5l-0.2-0.6c1-0.4,1.9-0.6,2.8-0.6c1,0,1.7,0.2,2.2,0.7
		c0.5,0.5,0.7,1.2,0.7,2.1v4.5C218.9,72.6,218.9,73,219.1,73.2z M218.1,71.8v-2.6h-1.8c-1,0-1.7,0.2-2.2,0.6
		c-0.5,0.4-0.8,0.9-0.8,1.7c0,0.7,0.2,1.2,0.5,1.5c0.4,0.4,0.9,0.5,1.5,0.5C216.6,73.6,217.5,73,218.1,71.8z"/>
	<path class="st0" d="M228.8,66c0.6,0.8,0.8,2,0.8,3.5c0,1.5-0.3,2.7-0.9,3.5c-0.6,0.9-1.4,1.3-2.5,1.3c-0.6,0-1.1-0.1-1.5-0.4
		c-0.5-0.2-0.8-0.6-1.1-1v4.6l-0.8,0.1V64.9h0.7l0.1,1.4c0.4-0.5,0.8-0.9,1.2-1.1c0.5-0.3,1-0.4,1.6-0.4
		C227.4,64.7,228.2,65.1,228.8,66z M228.1,72.5c0.5-0.7,0.7-1.7,0.7-3.1c0-2.7-0.9-4-2.6-4c-0.6,0-1.1,0.1-1.5,0.4
		c-0.4,0.3-0.8,0.7-1.2,1.2v5c0.3,0.5,0.7,0.8,1.1,1.1c0.4,0.3,0.9,0.4,1.4,0.4C227,73.5,227.6,73.2,228.1,72.5z"/>
	<path class="st0" d="M238.6,65.5c0.4,0.5,0.6,1.2,0.6,2.1v6.5h-0.8v-6.4c0-1.5-0.6-2.2-1.8-2.2c-0.6,0-1.2,0.2-1.6,0.5
		c-0.5,0.3-0.9,0.8-1.4,1.5v6.7h-0.8V61.2l0.8-0.1v5.5c0.9-1.2,1.9-1.8,3.1-1.8C237.6,64.7,238.2,65,238.6,65.5z"/>
	<path class="st0" d="M245.5,74.1c-0.2,0.7-0.5,1.3-0.8,1.7c-0.3,0.4-0.6,0.8-1.1,1.1c-0.4,0.3-1,0.5-1.7,0.7l-0.1-0.6
		c0.6-0.2,1.1-0.4,1.4-0.6c0.3-0.2,0.6-0.5,0.8-0.9c0.2-0.3,0.4-0.8,0.6-1.4h-0.3l-3.2-9.2h0.9l2.9,8.5l2.8-8.5h0.9L245.5,74.1z"/>
</g>
</svg>
