<svg id="Слой_1" xmlns="http://www.w3.org/2000/svg" viewBox="118 10.7 376.5 83.3"><style>.st0{fill:#6e4c4b}.st1{fill:#d0c7d1}.st2{fill:#952852}.st3{fill:#89164a}.st4{fill:#7c2a66}.st5{fill:#77005c}.st6{fill:#cd3e72}.st7{fill:#e9688e}.st8{opacity:.5;fill:#cd88ba;enable-background:new}.st9{fill:#032d1c}</style><path class="st0" d="M177.9 28.9c0 2-.9 5.2-3 9.8-2 4.4-3 7.3-3 8.5 0 1.1.5 1.6 1.4 1.6.5 0 1.3-.3 2-.9.8-.5 1.4-.9 1.4-.9.2 0 .3.2.3.3 0 .6-.5 1.4-1.4 1.7-.9.5-1.7.8-2.5.8-1.9 0-2.7-.9-2.7-3 0-1.4.5-3.3 1.6-5.7 1.3-2.8 1.9-4.3 2-4.4.6-1.7 1.4-3.3 1.6-4.7.5-1.4.5-2.5.5-3.3 0-1.3-.5-1.7-1.4-1.7-.5 0-.9.2-1.6.5-2.4 1.1-5.7 4.1-9.5 8.8-2.8 3.5-5.2 7.1-7.6 10.9-.5.9-1.4 2.2-2.5 3.6-.8 0-1.1-.5-1.1-1.1 0-.3 0-.5.2-.6 1.9-2.4 4.1-6.1 6.3-11.2 2.4-5.5 3.8-9.6 3.8-12.1 0-3.8-2.2-5.7-6.6-5.7-2.2 0-4.4.5-7.1 1.4-3.2 1.1-6.1 2.5-9 4.6-3.8 2.5-5.8 5.2-5.8 7.6 0 2 1.4 3 4.1 3 1.4 0 3.3-.5 5.8-1.1.3-.2.5-.2.5-.2.3 0 .5.2.5.3 0 .5-.9 1.1-2.7 1.4-1.4.5-2.5.5-3.5.5-3.9 0-5.8-1.4-5.8-4.6 0-2.8 2-5.7 6-8.4 3-2 6.1-3.6 9.8-4.7 3-.8 5.5-1.4 8-1.4 5.7 0 8.5 2.4 8.5 6.8 0 3.2-1.3 7.1-3.8 11.8 2-2.4 3.9-4.7 6-7.1 3-3.3 5.2-4.9 7.1-4.9 2 .2 3.2 1.4 3.2 3.8zm18.6 13.9c0 .2-.2.5-.3.6-1.4 2.4-3 4.1-4.3 4.7-.6.3-1.3.5-1.9.5-2.2 0-3.2-1.4-3.2-4.4 0-.5 0-.9.2-1.6-2.4 4.1-4.3 6.1-6.1 6.1-1.1 0-1.6-.5-1.6-1.7 0-1.7.8-3.9 2.5-6.5s3.3-4.1 5-4.6c.5-.3 1.3-.5 1.7-.5 1.3 0 2.2.5 2.7 1.4.2.2.2.3.2.5 0 0-.2.2-.5.2-.3.2-.5.2-.5.5-.8 1.4-1.3 3.3-1.3 6.1 0 2.4.5 3.8 1.6 3.8.8 0 1.9-.8 3.3-2.5s2.2-2.5 2.4-2.5c0-.5.1-.5.1-.1zm-7.7-5.6h-.5c-1.4 0-2.8.9-4.3 2.7-2.2 2.5-3.2 4.6-3.2 6.3 0 .6.3 1.1.6 1.1.8 0 1.7-.8 3-2.4 1.9-2.1 3.3-4.7 4.4-7.7z"/><path class="st0" d="M207.6 42.6c0 .2-.2.3-.3.5-.9 1.3-2.4 2.5-4.3 3.8-2.2 1.4-3.8 2.2-5.2 2.2-2 0-3-1.4-3-4.3 0-2.2.6-4.6 1.9-7.1-2.4 0-3.6-.5-3.6-1.4 0-.3.2-.3.5-.3s1.1 0 2 .2 1.6.2 2 .2c.3-.5.9-1.7 2.4-4.3.9-1.9 1.9-3.2 2.4-3.8.5-.5 1.3-.6 2-.6s1.1.2 1.1.5c-.5.6-1.3 1.4-2 2.7-1.4 2-2.7 3.9-3.6 5.5h4.3c.5 0 .6.2.6.3 0 .5-1.7.8-5.4.9-.5.8-1.1 2-1.6 3.6s-.6 2.8-.6 3.8c0 1.7.6 2.7 2 2.7 1.1 0 2.5-.5 4.3-1.7 1.4-.9 2.5-2 3.3-3.2.3-.2.4-.4.8-.2 0-.3 0-.3 0 0z"/><path class="st0" d="M222.4 42.8c0 .2-.2.5-.3.6-1.4 2.4-3 4.1-4.3 4.7-.6.3-1.3.5-1.9.5-2.2 0-3.2-1.4-3.2-4.4 0-.5 0-.9.2-1.6-2.4 4.1-4.3 6.1-6.1 6.1-1.1 0-1.6-.5-1.6-1.7 0-1.7.8-3.9 2.5-6.5s3.3-4.1 5-4.6c.5-.3 1.3-.5 1.7-.5 1.3 0 2.2.5 2.7 1.4.2.2.2.3.2.5 0 0-.2.2-.5.2-.3.2-.5.2-.5.5-.8 1.4-1.3 3.3-1.3 6.1 0 2.4.5 3.8 1.6 3.8.8 0 1.9-.8 3.3-2.5s2.2-2.5 2.4-2.5c.1-.5.1-.5.1-.1zm-7.6-5.6h-.5c-1.4 0-2.8.9-4.3 2.7-2.2 2.5-3.2 4.6-3.2 6.3 0 .6.3 1.1.6 1.1.8 0 1.7-.8 3-2.4 1.7-2.1 3.1-4.7 4.4-7.7z"/><path class="st0" d="M240 20.4c0 2.4-2.4 6.3-6.8 12-3.5 4.4-6.8 8-9.9 10.9 0 3.8.9 5.7 2.8 5.7s4.6-1.9 8-5.8c.2-.2.3-.3.5-.3s.3.2.3.5c0 .2 0 .3-.2.5-1.3 1.6-2.5 3-4.3 4.3-2 1.4-3.8 2.4-5.2 2.4-2.5 0-3.9-2.2-3.9-6.3 0-3 1.4-6.8 4.3-11.8 2.4-4.1 4.9-7.4 7.6-10.4 1.9-2 3.5-3.2 4.7-3.2.5 0 .8.3 1.3.6.5-.1.8.2.8.9zm-2.3 0c0-.6-.3-.9-.6-.9-.9 0-2.4.9-3.6 3-1.6 2.4-3.5 5.4-5.7 9.5-2.4 4.4-3.6 7.9-4.3 9.9 1.9-1.6 4.4-4.7 7.7-9.1 3.3-4.6 5.2-8 6.1-10.1.2-.9.4-1.7.4-2.3z"/><path class="st0" d="M244.4 42.6c0 .3-.2.5-.5.8-3.2 4.3-5.8 6.3-8 6.3-1.9 0-2.8-1.1-2.8-3.2 0-1.1.5-2.4 1.1-4.3.6-1.6 1.3-3 2-3.9.3-.3.5-.5.6-.5.2 0 .5.2.8.5s.5.5.5.9c0 .2-.2.5-.3.5-1.7 2.7-2.5 5-2.5 6.8 0 1.3.5 1.9 1.4 1.9s2.2-.5 3.3-1.6c.8-.6 1.7-1.7 2.7-3 .8-1.1 1.4-1.6 1.4-1.6.2-.1.3.1.3.4zm-3.4-9.5c0 .5-.2.8-.5 1.1s-.6.5-1.3.5c-.8 0-1.3-.5-1.3-1.3 0-.5.2-.8.5-1.1s.6-.5 1.3-.5c.8.1 1.3.6 1.3 1.3z"/><path class="st0" d="M259.3 42.8c0 .2-.2.5-.3.6-1.4 2.4-3 4.1-4.3 4.7-.6.3-1.3.5-1.9.5-2.2 0-3.2-1.4-3.2-4.4 0-.5 0-.9.2-1.6-2.4 4.1-4.3 6.1-6.1 6.1-1.1 0-1.6-.5-1.6-1.7 0-1.7.8-3.9 2.5-6.5 1.7-2.5 3.3-4.1 5-4.6.5-.3 1.3-.5 1.7-.5 1.3 0 2.2.5 2.7 1.4.2.2.2.3.2.5 0 0-.2.2-.5.2-.3.2-.5.2-.5.5-.8 1.4-1.3 3.3-1.3 6.1 0 2.4.5 3.8 1.6 3.8.8 0 1.9-.8 3.3-2.5s2.2-2.5 2.5-2.6c0-.4 0-.4 0 0zm-7.6-5.6h-.5c-1.4 0-2.8.9-4.3 2.7-2.2 2.5-3.2 4.6-3.2 6.3 0 .6.3 1.1.6 1.1.8 0 1.7-.8 3-2.4 1.7-2.1 3.3-4.7 4.4-7.7zm45.2-12.3c0 1.6-1.4 3.2-4.1 4.4-2 1.1-4.1 1.7-6.3 2 2.4.5 4.6 1.4 6.3 2.4 2.4 1.4 3.6 3.3 3.6 5.2 0 1.6-.8 3.3-2.5 5.4.9 1.3 1.4 2.2 1.4 2.7s-.2.6-.5.6c-.2 0-.3-.2-.5-.3-.5-.9-.9-1.6-1.4-2.2-2.4 2-5.2 3.6-8.8 4.7-3.3.9-6.5 1.4-9.9 1.4-2.4 0-4.4-.5-6.6-1.4-2.7-1.1-4.1-2.7-4.1-4.7 0-2.4 1.1-4.3 3.3-5.7 1.9-1.3 4.1-1.9 6.5-2 1.4-3.3 3.2-6.8 4.9-9.9.5-1.1 1.4-2.5 2.7-4.6.5-.8 1.4-1.1 2.7-1.1.5 0 .6.2.6.5 0 .2 0 .3-.2.3-3.3 4.4-6.1 9.3-9 15 7.9.2 13.7 1.9 17.5 5.2 1.1-1.4 1.6-2.8 1.6-4.1 0-2.2-1.4-3.9-4.4-5.2-2.4-.9-4.7-1.4-7.3-1.4h-1.3c-.5 0-.6-.2-.6-.5 0-.6.5-1.1 1.4-1.3.5-.2 1.4-.2 2.4-.5 4.3-.8 7.3-2.2 9.1-4.1.8-.8 1.3-1.4 1.3-2 0-1.3-1.6-2.2-4.9-2.8-2.2-.5-4.4-.6-6.8-.6-6.1 0-12 1.1-17.5 3.3-.2.2-.3.2-.5.2-.3 0-.5-.2-.5-.5 0-.5.3-.8.6-1.4.3-.6.9-.8 1.4-1.1 3.6-1.4 8.2-2.2 13.7-2.2 3.3 0 6.3.3 9.1.9 5.6 1.8 7.6 3.4 7.6 5.4zm-5.2 19.3c-1.9-1.6-4.3-3-7.3-3.8-2.8-.8-5.5-1.4-8.2-1.4h-1.4c-2 4.4-3.2 7.4-3.2 9v.8c0 .5-.2.6-.5.6-.5 0-.8-.5-.8-1.4 0-1.6.9-4.4 2.7-8.8-4.6.8-6.9 2.8-6.9 6.3 0 1.6 1.1 2.8 3.2 3.8 1.6.6 3.3 1.1 5.2 1.1 7.6.2 13.3-1.8 17.2-6.2zm17.4-1.6c0 .3-.2.5-.5.8-3.2 4.3-5.8 6.3-8 6.3-1.9 0-2.8-1.1-2.8-3.2 0-1.1.5-2.4 1.1-4.3.6-1.6 1.3-3 2-3.9.3-.3.5-.5.6-.5s.5.2.8.5.5.5.5.9c0 .2-.2.5-.3.5-1.7 2.7-2.5 5-2.5 6.8 0 1.3.5 1.9 1.4 1.9s2.2-.5 3.3-1.6c.8-.6 1.7-1.7 2.7-3 .8-1.1 1.4-1.6 1.4-1.6.1-.1.3.1.3.4zm-3.7-9.5c0 .5-.2.8-.5 1.1s-.6.5-1.3.5c-.8 0-1.3-.5-1.3-1.3 0-.5.2-.8.5-1.1s.6-.5 1.3-.5c1 .1 1.3.6 1.3 1.3z"/><path class="st0" d="M324.5 42.3c0 .3-.2.5-.3.9-2.7 4.3-5.4 6.5-8 6.5-1.9 0-3-1.1-3-3.3s.6-4.4 2.2-6.8c-.3.2-.5.2-.6.2-.5 0-1.1-.2-1.6-.5-.6-.5-.9-.8-.9-1.4-.5.8-1.1 2.2-2.2 3.6-1.3 2-2.2 3-2.5 3-.2 0-.3-.2-.3-.3s.2-.3.3-.5c1.4-1.9 2.7-4.3 4.1-7.1-.2-.3-.2-.6-.2-1.1 0-.8.2-1.7.5-2.7.5-1.4.8-2 1.4-2 .5 0 .6.3.9.9.3.5.5.9.5 1.4 0 .8-.6 2.2-2.2 3.8.3 1.1.9 1.6 1.7 1.6.6 0 1.3-.3 1.7-.9.5-.6.9-1.1 1.3-1.1s.5.2.8.5.5.5.5.9l-1.7 3.5c-1.3 2.4-1.7 4.3-1.7 5.4 0 1.1.5 1.7 1.7 1.7.9 0 2-.5 3.3-1.6.8-.6 1.7-1.7 2.8-3.2.8-1.1 1.4-1.6 1.4-1.6s.1 0 .1.2z"/><path class="st0" d="M333.7 42.6c0 .3-.2.5-.5.8-3.2 4.3-5.8 6.3-8 6.3-1.9 0-2.8-1.1-2.8-3.2 0-1.1.5-2.4 1.1-4.3.6-1.6 1.3-3 2-3.9.3-.3.5-.5.6-.5.2 0 .5.2.8.5s.5.5.5.9c0 .2-.2.5-.3.5-1.7 2.7-2.5 5-2.5 6.8 0 1.3.5 1.9 1.4 1.9s2.2-.5 3.3-1.6c.8-.6 1.7-1.7 2.7-3 .8-1.1 1.4-1.6 1.4-1.6.3-.1.3.1.3.4zm-3.7-9.5c0 .5-.2.8-.5 1.1s-.6.5-1.3.5c-.8 0-1.3-.5-1.3-1.3 0-.5.2-.8.5-1.1s.6-.5 1.3-.5c1 .1 1.3.6 1.3 1.3z"/><path class="st0" d="M345.5 42.9c0 .2 0 .2-.2.3-.5.8-1.3 1.4-2.2 2.2-.9.8-1.9.9-2.8.9-.6 0-1.4-.2-1.9-.5-1.6 2.5-3.3 3.8-5 3.8-1.3 0-1.7-.6-1.7-2.2 0-2 .8-4.3 2.5-7.1-.2-.5-.2-.8-.2-1.1 0-1.3.5-2.4 1.3-3.6s1.9-1.7 3.2-1.7c.8 0 1.4.5 1.9 1.4.5.8.5 1.6.5 2.4 0 1.9-.6 4.3-2.2 7.1.5.3 1.1.5 1.7.5 1.1 0 2.2-.5 3.3-1.4l1.4-1.4c.2.1.4.1.4.4zm-7.9 2.1c-1.1-.8-2-1.6-2.5-2.7-1.1 2.2-1.6 3.8-1.6 4.7 0 .6.3 1.1.8 1.1s1.1-.5 1.9-1.3c.6-.6 1.1-1.2 1.4-1.8zm1.7-6c0-.8-.2-1.4-.5-2.4-.5-1.1-.8-1.6-1.4-1.6-.8 0-1.4.5-1.9 1.4-.5.8-.5 1.6-.5 2.4.5-.6 1.1-.9 1.6-.9s.9.2 1.1.5v.8c0 .2-.2.2-.5.2-.6 0-1.3.6-2 2 .5 1.4 1.3 2.4 2.4 3.3 1.3-2.6 1.7-4.5 1.7-5.7z"/><path class="st0" d="M360.9 42.3c0 .3-.2.5-.3.9-.9 1.6-2.2 3-3.3 4.3-1.6 1.4-3.3 2.4-4.7 2.4-1.9 0-3-1.3-3-3.6 0-.5.3-1.6.8-3.3-1.3 1.7-2 2.8-2.4 3.3-1.1 1.4-2.2 2-3.2 2-1.1 0-1.7-.9-1.7-3 0-1.1.5-2.4 1.1-4.1.8-1.7 1.6-2.7 2.5-2.7.5 0 .8.2.8.5 0 0-.5.8-1.4 2.4s-1.4 2.7-1.4 3.5c0 1.1.3 1.6.9 1.6 1.1 0 3.2-2.5 6-7.6.3-.5.5-1.3 1.1-2 .3-.3.5-.5.8-.5s.5.2.8.5.5.5.5.9c0 0-.6 1.1-1.9 3.5s-1.9 4.3-1.9 5.4.5 1.7 1.7 1.7c.9 0 2-.5 3.3-1.6.8-.6 1.7-1.7 2.8-3.2.8-1.1 1.4-1.6 1.4-1.6.6.1.7.1.7.3zm20.8-22.1c0 2.4-2.2 6-6.5 10.4-2.8 2.8-6.1 5.7-9.9 8.7-.6 1.4-1.3 2.8-1.7 4.3l5.2-5.2c2.5-2.4 4.4-3.6 5.7-3.6.9 0 1.4.6 1.4 2s-.9 2.7-2.8 3.9c-1.7 1.3-3.3 1.7-4.7 1.7.6 3.3 2.2 5 4.3 5 2 0 4.3-1.6 6.6-4.7.3-.3.5-.5.6-.5s.3.2.3.3-.2.3-.3.5c-.8 1.3-2 2.4-3.5 3.8-1.9 1.6-3.3 2.4-4.3 2.4-1.3 0-2.5-.9-3.8-2.7-1.3-1.6-1.9-3.2-2-4.4l-2.4 2.8c-.8 1.1-1.4 2.4-1.6 3.6-.5.2-.8.3-1.3.3-.8 0-1.1-.2-1.1-.5 0-.8.6-2.8 2.2-6.1 2.2-4.9 4.6-9.6 7.3-13.9 4.3-6.8 7.7-10.1 10.4-10.1 1.2-.2 1.9.4 1.9 2zm-1.2.6c0-.6-.3-1.1-.9-1.1-.9 0-2.4.8-4.3 2.4-3.3 2.7-6.1 6.9-8.4 12.5-.5 1.3-.8 2-.8 2.4 2.4-1.4 5.2-3.9 8.5-7.3 4-4 5.9-6.8 5.9-8.9zm-7.1 16.6c0-.6-.3-1.1-.6-1.1-.6 0-2.5 1.6-5.7 4.7.2.3.5.5.9.5 1.1 0 2.2-.5 3.5-1.4 1.4-1 1.9-1.8 1.9-2.7z"/><g><path class="st1" d="M133.1 77.4c.7.4 1.5.7 2.3.9.6.2 1.2.4 1.8.5-.2-.2-.4-.4-.6-.5h.1c.5.1.9-.1 1.5-.1 0-.1-.2-.3-.3-.5-.2-.3-.3-.7-.5-1.1-.1-.3 0-.3.3-.2.9.3 1.8.5 2.8.5.3 0 .7 0 .7-.1 0-.2-.1-.5-.2-.6l-.3-.9c-.2-.6-.5-1.2-.8-1.7-.2-.3-.4-.7-.6-.8 1.3 0 2.7.6 3.9 0-.2-.4-.2-.9-.5-1.3-.4-.8-.9-1.3-1.4-2l-.3-.4c-.2-.4-.5-.8-.9-1.1-.5-.4-.9-1-1.4-1.5-.5-.4-1.1-.7-1.8-.9-1-.2-2-.2-3 .2-1.6-.2-3.5-.3-3.9-.2h-.1c-.1 0-.3.2-.4.3-.4.2-.8.5-.9 1-.1.3 0 .6 0 .9 0 .4 0 .7.1 1.2.1.4 0 .9.1 1.4v.2c-.2.9 0 1.8.3 2.6.8 1.9 2.2 3.4 4 4.2z"/><path class="st2" d="M140.7 66.9c.4-.1 1 .6 1.2.8.6.7 1.3 1.3 1.9 2 .5.7 1 1.3 1.4 2 .2.4.2.9.5 1.3-1.2.6-2.7.1-3.9 0 .2.2.4.6.6.8.3.5.6 1.2.8 1.7l.3.9c0 .1.3.5.2.6 0 .2-.4.1-.7.1-.9 0-1.8-.2-2.8-.5-.3-.1-.4-.2-.3.2.1.3.3.7.5 1.1.1.1.2.3.3.5-.5 0-.9.2-1.5.1-.5-.1-1-.4-1.4-.6-.7-.4-1.4-.9-2-1.4-1.1-1.1-1.7-2.4-1.7-4 0-1.2.4-2.7 1.3-3.7.7-.8 1.8-1.5 2.7-2 .5-.3 1.3-.5 2-.4l.5.1h.4"/><path class="st3" d="M139.8 67.2c.4-.1.8.5 1 .7.5.5 1.2 1.1 1.6 1.7.4.6.8 1.1 1.2 1.8.2.3.2.8.4 1.1-1 .5-2.3.1-3.3 0 .2.2.4.5.5.7.3.5.5 1 .7 1.5l.3.8c0 .1.2.4.2.5 0 .2-.4.1-.6.1-.8.1-1.6-.2-2.3-.4-.3-.1-.4-.1-.3.1.1.3.2.6.4.9 0 .1.2.3.2.4-.5 0-.8.2-1.3 0-.5-.1-.8-.3-1.3-.5-.6-.3-1.2-.7-1.7-1.2-1-1-1.5-2-1.4-3.4 0-1.1.4-2.3 1.1-3.1.6-.7 1.5-1.3 2.3-1.7.4-.2 1.1-.4 1.7-.3l.4.1c0 .2.1.1.2.2"/><path class="st4" d="M134.8 68.9c2.1-1.5 4.8-1.5 6.2.1 1.3 1.6.8 4.1-1.3 5.7-2.1 1.5-4.8 1.5-6.2-.1s-.8-4.1 1.3-5.7z"/><path class="st5" d="M133.5 74.5c-1.3-1.6 3.2 1.3 5.3-.2 2-1.5.9-6.9 2.2-5.3s.8 4.1-1.3 5.6-4.9 1.5-6.2-.1z"/><path class="st6" d="M137.9 75.9c.3-1.2.5-2.4.5-3.6 0-.5-.1-1.1-.3-1.6-.2-.3-.4-.5-.5-.8.3 0 .6.1 1 .1.7 0 1.2.1 1.9.3.6.2 1.3.2 1.9.3.3 0 .9.2 1.1 0l-.2-1c-.2-.5-.6-.9-.9-1.3-.5-.4-.9-1-1.4-1.5-.5-.4-1.1-.7-1.8-.9-2.4-.5-4.6.6-6.2 2.1-.9.8-1.6 1.6-1.8 2.8-.2.9 0 1.8.3 2.6.6 1.8 2 3.3 3.8 4.2.7.4 1.5.7 2.3.9.6.2 1.1.4 1.8.5-.6-.5-1.1-1.2-1.7-1.9-.3-.3-.5-.6-.7-.9-.2-.2-.4-.6-.7-.8.7.4 1.1.6 1.6.5l.1-.2"/><path class="st7" d="M136.5 66.5c.2-.2.6-.2.8-.1.6 0 1.1.1 1.7.2.7.2 1.3.4 1.9.8.4.2.7.6 1.1.9-.2 0-.5-.1-.8-.3-.4-.1-.9-.3-1.4-.4-.9-.3-2-.8-3-.8.1.1.3.1.5.1l.9.3c.6.3 1.3.8 1.7 1.4-.2 0-.6-.2-.7-.3-.4-.2-.9-.3-1.4-.5-.6-.2-1.3-.3-2-.5.2.3.6.4.8.6.3.3.7.6 1 1-.4-.3-.9-.5-1.3-.7-.3-.2-.8-.5-1.2-.5-.1.3.5.9.6 1.1.2.3.8 1.4.5 1.6-.5-.3-.8-.9-1.1-1.4-.1-.1-.6-.8-.7-.4 0 .1.1.3.1.5.1.3.2.6.4.9.4 1 .6 2.1.9 3.1 0 .2.6 1.7.3 1.8-.3.1-.9-.9-1-1.1-.5-.6-.8-1.4-1.1-2.1-.2-.4-.3-1-.6-1.4-.2.2 0 .5 0 .7 0 .5.1 1 .2 1.5s.2 1 .4 1.4c.1.3.3.7.2.9-.5-.4-.6-1.1-.8-1.7-.1-.4-.3-.8-.5-1.2-.1-.3-.1-.6-.3-.8-.2.2-.1.5-.1.7 0 .6.1 1.1.3 1.7.1.7.4 1.4.6 2.2-.3 0-.5-1.1-.6-1.4-.2-.5-.4-1-.5-1.5-.3-1-.2-1.8.2-2.7.4-.9 1.2-1.5 1.8-2.3.5-.5 1.1-.9 1.7-1.1.2-.1.6-.2.6-.4"/><path class="st8" d="M140.6 73.3c.4-.2.6-.9.7-1.3.1-.4-.1-.9-.6-.5-.4.3-1.1 1.9-.6 2.3.3-.1.5-.4.5-.5"/><path class="st9" d="M132.5 65.9c.6 0 6.2.1 5.7 1-.1.2-.9.1-1.1.1-.5 0-.9 0-1.3.1-.3 0-.7.1-.6.4.1.4.5.8.7 1.2.3 1.2-1.3-.5-1.5-.4-.4 0-.4.6-.3.8 0 .5.1 1 0 1.5-.1.4-.3.5-.5.1-.1-.2-.3-1.2-.6-1s-.1 1.2-.1 1.4c.1.4.2 1.1-.1 1.5-.6.8-.9-.2-1-.7-.2-.8-.3-1.6-.3-2.4 0-.4 0-.7-.1-1.2 0-.3-.1-.6 0-.9.1-.5.5-.7.9-1-.2-.3 0-.6.2-.5"/></g><g><path class="st1" d="M272.8 78.6c.7-1.1 1.3-2.1 1.9-3.2.4-.9.9-1.7 1.2-2.5-.3.3-.6.5-1 .7 0-.1 0-.1.1-.2.3-.8.1-1.4.1-2.2-.3 0-.6.2-.8.3-.6.2-1.2.3-1.8.5-.6.1-.5 0-.2-.5.6-1.3 1.2-2.5 1.3-4 0-.4.2-1-.1-1.1-.3-.1-.8.1-1.1.2-.5.1-1 .1-1.5.2-1 .2-2 .4-2.8.8-.4.2-1.2.4-1.5.7.2-1.9 1.3-3.9.6-5.8-.7.2-1.5.2-2.2.5-1.2.4-2.3 1.1-3.4 1.7l-.6.3c-.7.2-1.3.6-1.9 1.1-.8.6-1.8 1.1-2.6 1.8s-1.3 1.6-1.7 2.5c-.6 1.5-.6 3-.2 4.5-.6 2.3-1 5.2-1 5.7v.1c-.1.2.3.5.4.8.4.6.7 1.3 1.5 1.6.5.1 1 .1 1.5.1.6 0 1.3.1 1.9.2.8.1 1.5.1 2.2.1.1 0 .2.1.4.1 1.4.5 2.7.3 4.2.1 2.8-.7 5.5-2.7 7.1-5.1z"/><path class="st2" d="M257.3 65.2c-.1-.6 1.1-1.3 1.5-1.6 1.1-.8 2.3-1.7 3.4-2.4 1.2-.6 2.3-1.2 3.4-1.7.7-.3 1.5-.2 2.2-.5.8 1.9-.3 4-.6 5.8.3-.4 1.1-.6 1.5-.7.9-.4 2-.6 2.8-.8.5-.1 1-.1 1.5-.2.3 0 .8-.3 1.1-.2.3.1.1.7.1 1.1-.1 1.4-.7 2.7-1.3 4-.2.5-.4.7.2.5.6-.1 1.2-.3 1.8-.5.3-.1.6-.3.8-.3-.1.8.1 1.4-.1 2.2-.2.8-.7 1.4-1.1 2.1-.7 1-1.6 1.9-2.6 2.6-2 1.5-4 2.1-6.6 1.8-2-.3-4.2-1.3-5.6-2.6-1.2-1.3-2-2.8-2.6-4.5-.3-.9-.6-2.2-.4-3 .1-.2.2-.4.2-.7 0-.2 0-.5.1-.6"/><path class="st3" d="M257.7 66.5c-.1-.5 1-1.1 1.3-1.4 1-.7 1.9-1.5 2.9-2s1.9-1 2.9-1.4c.6-.2 1.3-.2 1.9-.4.6 1.6-.3 3.3-.5 4.9.3-.3.9-.5 1.3-.6.8-.3 1.7-.5 2.5-.7.4-.1.9-.1 1.3-.2.2 0 .7-.2.9-.1.3.1.1.6.1.9-.1 1.2-.6 2.4-1.1 3.3-.2.4-.3.6.2.4.5-.1 1-.2 1.5-.4.2-.1.5-.2.7-.3-.1.7.1 1.2-.1 1.9-.2.6-.6 1.2-1 1.8-.6.9-1.4 1.7-2.2 2.3-1.7 1.3-3.4 1.8-5.5 1.5-1.7-.2-3.5-1.1-4.7-2.3-1-1.1-1.7-2.5-2.3-3.8-.3-.7-.5-1.8-.3-2.5 0-.2.1-.4.2-.6 0-.2 0-.4.1-.5"/><path class="st4" d="M259.5 74.3c-2.1-3.4-1.6-7.5 1.1-9.2 2.7-1.7 6.6-.3 8.7 3.1s1.6 7.5-1.1 9.2-6.6.3-8.7-3.1z"/><path class="st5" d="M268.2 77.4c-2.7 1.7 2.6-4.5.4-7.9-2.1-3.4-10.8-2.6-8-4.4 2.7-1.7 6.7-.3 8.7 3.1 2.2 3.4 1.7 7.5-1.1 9.2z"/><path class="st6" d="M271.2 71c-1.9-.7-3.6-1.3-5.7-1.5-.8-.1-1.8-.1-2.6.2-.5.1-.9.5-1.4.5.1-.5.3-1 .4-1.5.1-1.1.3-1.9.7-2.8.3-.9.5-1.9.7-2.8.1-.4.5-1.4.2-1.7-.5.1-1.1.1-1.6.2-.8.2-1.5.7-2.2 1.1-.8.6-1.8 1.1-2.6 1.8s-1.3 1.6-1.7 2.5c-1.3 3.4.2 7 2.5 9.7 1.2 1.5 2.3 2.6 4.1 3.2 1.4.5 2.7.3 4.2.1 2.9-.4 5.6-2.4 7.3-4.8.7-1.1 1.3-2.1 1.9-3.2.4-.9.9-1.7 1.2-2.5-1 .8-2.3 1.5-3.2 2.2-.5.3-1 .6-1.5 1-.5.3-1 .5-1.4.8.4-.8.8-1.5.8-2.3-.1-.1-.3-.1-.4-.1"/><path class="st7" d="M256.1 71.3c-.3-.3-.1-.9-.1-1.3.1-.9.3-1.7.6-2.5.4-1 .9-1.9 1.6-2.5.5-.5 1.1-.9 1.6-1.4 0 .3-.3.7-.5 1.1-.3.7-.6 1.3-.9 2-.6 1.3-1.7 2.8-1.8 4.3.2-.2.3-.5.3-.7.2-.5.5-.9.7-1.3.6-.9 1.6-1.8 2.6-2.3 0 .3-.4.8-.6 1.1-.4.6-.7 1.4-1 2.1-.4 1-.8 2-1.1 2.8.4-.2.8-.8 1.2-1.1.5-.5 1.1-.9 1.7-1.3-.5.6-.9 1.3-1.4 1.9-.3.4-1 1.1-1.1 1.6.5.1 1.5-.6 1.9-.7.5-.2 2.4-.9 2.6-.3-.6.6-1.7 1-2.4 1.4-.2.1-1.5.7-.8 1 .2.1.6-.1.7-.1.5-.1 1-.2 1.6-.4 1.7-.4 3.3-.5 5.1-.8.3 0 2.6-.5 2.8 0 .1.4-1.6 1.1-1.9 1.3-1.1.6-2.3.9-3.4 1.3-.7.2-1.7.2-2.3.6.2.3.8.2 1.1.2h2.4l2.4-.3c.4 0 1.1-.3 1.5-.1-.8.6-1.9.7-2.8.9-.7.2-1.4.3-2 .4-.4.1-.9.1-1.3.2.3.3.8.2 1.2.2.9 0 1.8.1 2.6 0 1.2-.1 2.3-.3 3.4-.4-.1.4-1.9.6-2.3.7-.8.2-1.7.4-2.5.5-1.6.2-2.8 0-4.2-.9-1.4-.8-2.3-2.2-3.3-3.2-.7-.8-1.3-1.9-1.6-2.8 0-.5-.2-1.2-.3-1.2"/><path class="st8" d="M267.5 66.6c-.3-.6-1.3-1.1-1.9-1.3-.6-.2-1.5 0-1 .8.4.6 2.7 2.1 3.4 1.4 0-.5-.5-.9-.9-1.1"/><path class="st9" d="M254.5 77.2c0-1 1.2-9.2 2.6-8.3.3.2 0 1.4-.1 1.7-.1.7-.1 1.4-.1 2.1 0 .4-.1 1.1.5 1 .6 0 1.3-.6 2-.7 2.1-.3-.9 1.8-.9 2.2-.1.6.8.6 1.2.7.8.1 1.6 0 2.4.3.7.2.7.6 0 .8-.3.1-2 .3-1.8.7.2.5 1.9.4 2.3.5.8 0 1.8-.1 2.4.5 1.2 1-.5 1.3-1.4 1.4-1.3.1-2.6.1-3.8 0-.6-.1-1.3-.1-1.9-.2-.5 0-1 0-1.5-.1-.8-.2-1.1-.9-1.5-1.5-.2-.5-.5-.8-.4-1.1"/></g><g><path class="st1" d="M279.7 86.9c.7 0 1.3-.1 2-.3.5-.1 1-.1 1.4-.3-.2-.1-.4-.1-.6-.2h.1c.4-.1.6-.4 1-.7-.1-.1-.2-.2-.4-.3-.2-.2-.5-.4-.8-.6s-.1-.2.2-.3c.7-.1 1.5-.3 2.1-.8.2-.1.4-.2.4-.4s-.3-.3-.4-.4l-.6-.6c-.4-.4-.8-.7-1.3-1-.2-.1-.6-.4-.8-.4.9-.5 2.1-.7 2.6-1.7-.3-.2-.6-.6-.9-.8-.6-.4-1.2-.7-1.8-1-.1 0-.2-.1-.3-.2-.3-.2-.7-.4-1-.5-.5-.2-1-.4-1.6-.5s-1.1 0-1.6.1c-.8.3-1.5.8-2 1.4-1.1.5-2.5 1.3-2.7 1.5h-.1c-.1 0-.2.3-.2.4-.1.4-.3.7-.2 1.1.1.3.3.4.4.7.2.3.4.6.5.9.2.3.4.7.7 1v.2c.2.7.8 1.4 1.3 1.9 1.3 1.3 3 1.8 4.6 1.8z"/><path class="st2" d="M280.3 75.5c.2-.3.9.1 1.1.1.7.2 1.5.4 2.1.8.6.3 1.2.6 1.8 1 .4.2.6.6.9.8-.6.9-1.8 1.2-2.6 1.7.2 0 .6.3.8.4.5.2.9.7 1.3 1l.6.6c.1.1.4.3.4.4 0 .2-.3.3-.4.4-.6.4-1.4.6-2.1.8-.3 0-.4.1-.2.3.3.2.5.5.8.6.1.1.3.2.4.3-.3.2-.5.5-1 .7-.4.1-.8.2-1.2.2-.6 0-1.3-.1-1.9-.3-1.2-.4-2.2-1.1-2.9-2.3-.6-1-.9-2.3-.7-3.4.1-1 .6-1.9 1-2.7.2-.4.7-1 1.2-1.2.1 0 .3 0 .4-.1.1 0 .2-.1.2-.1"/><path class="st3" d="M279.9 76.1c.2-.2.8.1 1 .1.6.2 1.2.3 1.8.7.5.3 1 .5 1.5.8.3.2.5.5.8.7-.5.8-1.5 1-2.2 1.4.2 0 .5.2.6.3.4.2.7.5 1.1.9.2.1.3.3.5.5.1.1.3.2.3.3 0 .2-.2.3-.4.3-.5.4-1.2.6-1.8.7-.3 0-.4.1-.1.2l.6.6c.1.1.2.1.3.2-.3.2-.4.5-.8.6s-.7.1-1 .1c-.5 0-1.1-.1-1.6-.2-1.1-.4-1.9-.9-2.5-2-.5-.8-.7-1.9-.6-2.8.1-.8.5-1.6.9-2.3.2-.4.6-.8 1-1 .1 0 .2 0 .3-.1h.3"/><path class="st4" d="M277.1 79.5c.8-2.1 2.7-3.2 4.3-2.6s2.3 2.9 1.5 4.9c-.8 2.1-2.7 3.2-4.3 2.6-1.5-.6-2.2-2.8-1.5-4.9z"/><path class="st5" d="M278.7 84.4c-1.6-.6 2.8-.4 3.5-2.4.7-2.1-2.4-5.7-.8-5 1.6.6 2.3 2.9 1.6 4.9-.8 2-2.7 3.2-4.3 2.5z"/><path class="st6" d="M282.4 83.6c-.3-1.1-.6-2.1-1.2-3-.2-.4-.6-.8-.9-1.1-.2-.2-.5-.2-.7-.4.2-.2.5-.1.7-.4.5-.3.9-.5 1.4-.7.5-.1 1-.4 1.4-.7.2-.1.7-.2.8-.5-.2-.2-.4-.5-.6-.7-.3-.3-.8-.4-1.2-.6-.5-.2-1-.4-1.6-.5s-1.1 0-1.6.1c-1.9.6-2.9 2.4-3.4 4.4-.2 1-.4 1.9 0 2.9.2.7.8 1.4 1.3 1.9 1.2 1.2 2.8 1.7 4.4 1.6.7 0 1.3-.1 2-.3.5-.1 1-.1 1.4-.3-.7-.2-1.3-.5-2-.7l-.9-.3c-.3-.1-.5-.2-.8-.4.5-.1.9-.2 1.3-.4v-.2"/><path class="st7" d="M277.3 76.9c.1-.2.4-.3.5-.4.4-.2.8-.4 1.3-.6.6-.2 1.1-.2 1.6-.2.4 0 .7.2 1.1.2-.1.1-.4.1-.6.1-.4.1-.8.2-1.1.3-.8.2-1.7.2-2.4.6.1 0 .3 0 .4-.1.3 0 .5-.1.8-.1.6 0 1.2.1 1.8.4-.1.1-.5.1-.6.1l-1.2.3c-.5.1-1.1.3-1.6.5.2.1.6.1.8.1.4 0 .7.2 1.1.4H278c-.3 0-.8-.1-1 .1.1.3.7.5.9.6.2.1 1.1.7 1 1.1-.4 0-.9-.4-1.3-.6-.1-.1-.8-.4-.7 0 0 .1.2.2.3.3l.6.6c.7.6 1.3 1.3 2 2 .1.1 1.1 1 .9 1.3-.1.2-1-.3-1.1-.4-.6-.3-1.1-.7-1.7-1.1-.3-.2-.6-.7-1-.8 0 .2.2.4.3.6.3.3.5.7.8 1.1.3.3.6.6.9 1 .1.1.5.4.5.6-.5-.1-.9-.6-1.3-.9-.3-.2-.6-.5-.8-.7-.1-.2-.3-.4-.5-.5 0 .2.2.4.3.6l.9 1.2c.4.5.9 1 1.3 1.4-.2.1-.9-.6-1-.8-.4-.3-.7-.6-1-.9-.6-.7-.9-1.3-1-2.1s.2-1.7.3-2.6c.1-.6.4-1.2.7-1.6.1-.1.3-.4.3-.6"/><path class="st8" d="M283.1 80.5c.2-.3 0-1-.1-1.3s-.5-.6-.6-.2 0 1.9.5 2c.2-.2.2-.5.2-.8"/><path class="st9" d="M274.3 78.2c.4-.3 4.3-2.6 4.4-1.6 0 .2-.6.4-.8.5l-.9.6c-.2.1-.5.3-.3.6s.7.4 1 .7c.8.9-1.1.2-1.2.3-.3.2 0 .6.1.8.2.4.5.7.6 1.1s0 .5-.3.3c-.2-.1-.7-.8-.9-.6-.1.2.4 1 .5 1.1.2.3.6.8.6 1.2 0 .9-.7.2-1-.1-.5-.5-.8-1.1-1.2-1.7-.2-.3-.4-.6-.5-.9-.1-.2-.3-.4-.4-.7-.2-.4 0-.8.2-1.1-.1-.2-.1-.5.1-.5"/></g><path class="st9" d="M150.2 55.7h229.9v1.7H150.2z"/><g><path class="st0" d="M159 66c.6.8.8 2 .8 3.5s-.3 2.7-.9 3.5c-.6.9-1.4 1.3-2.5 1.3-.6 0-1.1-.1-1.5-.4-.5-.2-.8-.6-1.1-1v4.6l-.8.1V64.9h.7l.1 1.4c.4-.5.8-.9 1.2-1.1.5-.3 1-.4 1.6-.4 1-.1 1.8.3 2.4 1.2zm-.7 6.5c.5-.7.7-1.7.7-3.1 0-2.7-.9-4-2.6-4-.6 0-1.1.1-1.5.4-.4.3-.8.7-1.2 1.2v5c.3.5.7.8 1.1 1.1.4.3.9.4 1.4.4.9 0 1.6-.3 2.1-1zM168.8 65.5c.4.5.6 1.2.6 2.1v6.5h-.8v-6.4c0-1.5-.6-2.2-1.8-2.2-.6 0-1.2.2-1.6.5-.5.3-.9.8-1.4 1.5v6.7h-.8v-13l.8-.1v5.5c.9-1.2 1.9-1.8 3.1-1.8.8-.1 1.5.2 1.9.7zM179.1 66c.7.8 1 2 1 3.5s-.3 2.7-1 3.5c-.7.9-1.6 1.3-2.8 1.3-1.2 0-2.1-.4-2.8-1.3-.7-.8-1-2-1-3.5s.3-2.7 1-3.5c.7-.8 1.6-1.3 2.8-1.3 1.2 0 2.1.5 2.8 1.3zm-5 .5c-.5.7-.8 1.7-.8 3s.3 2.3.8 3c.5.7 1.2 1.1 2.2 1.1.9 0 1.6-.4 2.2-1.1.5-.7.8-1.7.8-3.1 0-1.3-.3-2.3-.8-3-.5-.7-1.2-1-2.2-1-1 0-1.7.4-2.2 1.1zM187.2 73.7c-.6.4-1.2.6-1.9.6s-1.2-.2-1.6-.6c-.4-.4-.6-1-.6-1.8v-6.3h-1.5v-.7h1.5v-2.2l.8-.1v2.3h2.4l-.1.7h-2.3v6.3c0 1.1.5 1.7 1.4 1.7.5 0 1-.1 1.5-.4l.4.5zM194.7 66c.7.8 1 2 1 3.5s-.3 2.7-1 3.5c-.7.9-1.6 1.3-2.8 1.3-1.2 0-2.1-.4-2.8-1.3-.7-.8-1-2-1-3.5s.3-2.7 1-3.5c.7-.8 1.6-1.3 2.8-1.3 1.2 0 2.1.5 2.8 1.3zm-5 .5c-.5.7-.8 1.7-.8 3s.3 2.3.8 3c.5.7 1.2 1.1 2.2 1.1.9 0 1.6-.4 2.2-1.1.5-.7.8-1.7.8-3.1 0-1.3-.3-2.3-.8-3-.5-.7-1.2-1-2.2-1-.9 0-1.7.4-2.2 1.1zM205.4 65c-.5.2-1.4.3-2.5.3 1 .5 1.5 1.3 1.5 2.6 0 .9-.3 1.6-.9 2.2-.6.5-1.4.8-2.4.8-.4 0-.8-.1-1.2-.2-.2.1-.4.3-.6.5s-.2.4-.2.6c0 .7.5 1 1.5 1h1.5c.9 0 1.6.2 2.1.6.5.4.8 1 .8 1.6 0 .8-.3 1.5-1 1.9-.6.5-1.6.7-2.9.7-1.3 0-2.3-.2-2.9-.6-.6-.4-.9-1.1-.9-2h.8c0 .5.1.8.3 1.1.2.3.5.5.9.6.4.1 1 .2 1.8.2 2 0 3-.6 3-1.8 0-.5-.2-.9-.6-1.2-.4-.3-.9-.4-1.6-.4h-1.5c-.7 0-1.3-.1-1.6-.4-.4-.3-.6-.7-.6-1.1 0-.6.3-1.1 1-1.5-.5-.3-.9-.6-1.2-1-.2-.4-.4-.9-.4-1.6 0-.9.3-1.6.9-2.2.6-.6 1.4-.8 2.4-.8 1.1 0 2 0 2.5-.1s1-.2 1.5-.4l.5.6zm-6.1 1c-.4.4-.6 1-.6 1.8s.2 1.4.7 1.8c.4.4 1 .6 1.8.6s1.4-.2 1.8-.6c.4-.4.6-1 .6-1.8s-.2-1.4-.6-1.8c-.4-.4-1-.6-1.8-.6s-1.5.2-1.9.6zM211.8 64.8l-.2.8c-.2-.1-.5-.1-.8-.1-.6 0-1.2.2-1.6.7-.4.5-.7 1.2-1 2.2v5.7h-.8v-9.2h.7l.1 2.1c.2-.8.6-1.4 1-1.7.4-.4 1-.6 1.6-.6.5 0 .8.1 1 .1zM219.1 73.2c.1.2.3.4.6.5l-.2.6c-.4-.1-.7-.3-.9-.5-.2-.2-.3-.6-.4-1.1-.7 1.1-1.6 1.6-2.9 1.6-.9 0-1.6-.2-2.1-.7-.5-.5-.8-1.2-.8-2 0-.9.3-1.7 1-2.2.7-.5 1.6-.8 2.7-.8h1.9v-1c0-.8-.2-1.3-.5-1.7-.3-.4-.9-.5-1.7-.5-.7 0-1.6.2-2.5.5l-.2-.6c1-.4 1.9-.6 2.8-.6 1 0 1.7.2 2.2.7.5.5.7 1.2.7 2.1V72c.1.6.1 1 .3 1.2zm-1-1.4v-2.6h-1.8c-1 0-1.7.2-2.2.6-.5.4-.8.9-.8 1.7 0 .7.2 1.2.5 1.5.4.4.9.5 1.5.5 1.3.1 2.2-.5 2.8-1.7zM228.8 66c.6.8.8 2 .8 3.5s-.3 2.7-.9 3.5c-.6.9-1.4 1.3-2.5 1.3-.6 0-1.1-.1-1.5-.4-.5-.2-.8-.6-1.1-1v4.6l-.8.1V64.9h.7l.1 1.4c.4-.5.8-.9 1.2-1.1.5-.3 1-.4 1.6-.4 1-.1 1.8.3 2.4 1.2zm-.7 6.5c.5-.7.7-1.7.7-3.1 0-2.7-.9-4-2.6-4-.6 0-1.1.1-1.5.4-.4.3-.8.7-1.2 1.2v5c.3.5.7.8 1.1 1.1.4.3.9.4 1.4.4 1 0 1.6-.3 2.1-1zM238.6 65.5c.4.5.6 1.2.6 2.1v6.5h-.8v-6.4c0-1.5-.6-2.2-1.8-2.2-.6 0-1.2.2-1.6.5-.5.3-.9.8-1.4 1.5v6.7h-.8v-13l.8-.1v5.5c.9-1.2 1.9-1.8 3.1-1.8.9-.1 1.5.2 1.9.7zM245.5 74.1c-.2.7-.5 1.3-.8 1.7-.3.4-.6.8-1.1 1.1-.4.3-1 .5-1.7.7l-.1-.6c.6-.2 1.1-.4 1.4-.6.3-.2.6-.5.8-.9.2-.3.4-.8.6-1.4h-.3l-3.2-9.2h.9l2.9 8.5 2.8-8.5h.9l-3.1 9.2z"/></g></svg>