<?xml version="1.0" encoding="utf-8"?>
<!-- Generator: Adobe Illustrator 19.0.0, SVG Export Plug-In . SVG Version: 6.00 Build 0)  -->
<svg version="1.1" id="Слой_1" xmlns="http://www.w3.org/2000/svg" xmlns:xlink="http://www.w3.org/1999/xlink" x="0px" y="0px"
	 viewBox="25 -55 190.5 153" style="enable-background:new 25 -55 190.5 153;" xml:space="preserve">
<style type="text/css">
	.st0{fill:#96325B;}
	.st1{fill:#B74270;}
	.st2{fill:#C55F82;}
	.st3{fill:#D0C7D1;}
	.st4{fill:#952852;}
	.st5{fill:#89164A;}
	.st6{fill:#7C2A66;}
	.st7{fill:#77005C;}
	.st8{fill:#CD3E72;}
	.st9{fill:#E9688E;}
	.st10{opacity:0.5;fill:#CD88BA;enable-background:new    ;}
	.st11{fill:#032D1C;}
</style>
<polyline id="XMLID_24_" class="st0" points="117.9,42 63.2,93.7 172.9,93.7 "/>
<polygon id="XMLID_23_" class="st1" points="118,43.6 172.8,93.6 172.8,12.2 63.1,12.2 63.1,93.6 "/>
<path id="XMLID_22_" class="st2" d="M115,61.1c1.7,1.6,4.4,1.6,6.1,0l51.7-48.8v-0.1H63.2L115,61.1z"/>
<g id="XMLID_11_">
	<path id="XMLID_21_" class="st3" d="M116.8-26.5c-0.5-1.2-0.9-2.4-1.2-3.7c-0.2-0.9-0.6-1.8-0.7-2.8c0.3,0.3,0.5,0.6,0.8,0.9
		c0-0.1,0-0.1,0-0.2c-0.1-0.9,0.2-1.5,0.3-2.3c0.3,0.1,0.5,0.3,0.8,0.4c0.6,0.3,1.1,0.5,1.7,0.8c0.6,0.2,0.5,0,0.3-0.5
		c-0.4-1.4-0.7-2.8-0.5-4.3c0.1-0.4,0-1,0.3-1.1s0.8,0.2,1,0.3c0.5,0.2,1,0.3,1.5,0.5c0.9,0.3,1.9,0.8,2.8,1.3
		c0.4,0.2,1.1,0.6,1.3,1c0.1-1.9-0.5-4.3,0.6-6.1c0.6,0.4,1.4,0.5,2.1,0.8c1.1,0.7,2.1,1.5,3.2,2.3c0.2,0.1,0.4,0.3,0.5,0.4
		c0.7,0.3,1.2,0.9,1.7,1.4c0.7,0.8,1.6,1.4,2.2,2.3c0.6,0.9,1,1.8,1.1,2.9c0.2,1.6-0.1,3.2-0.7,4.7c0.1,2.4-0.1,5.5-0.2,6v0.1
		c0.1,0.2-0.4,0.5-0.6,0.7c-0.5,0.6-1,1.2-1.8,1.3c-0.5,0-1-0.1-1.5-0.2c-0.6-0.1-1.3-0.1-1.9-0.1c-0.8-0.1-1.5-0.1-2.2-0.3
		c-0.1,0-0.3,0.1-0.4,0.1c-1.5,0.2-2.9-0.1-4.3-0.6C120.3-21.3,118-23.8,116.8-26.5z"/>
	<g id="XMLID_12_">
		<path id="XMLID_20_" class="st4" d="M135.4-37.8c0.3-0.6-0.9-1.5-1.2-1.9c-1-1-1.9-2.1-3-3c-1-0.8-2-1.6-3.2-2.3
			c-0.7-0.4-1.4-0.5-2.1-0.8c-1.2,1.8-0.5,4.1-0.6,6.1c-0.2-0.4-0.9-0.7-1.3-1c-0.8-0.5-1.8-1-2.8-1.3c-0.5-0.2-1-0.3-1.5-0.5
			c-0.3-0.1-0.7-0.4-1-0.3c-0.3,0.1-0.3,0.7-0.3,1.1c-0.2,1.5,0.1,2.9,0.5,4.3c0.1,0.5,0.2,0.7-0.3,0.5c-0.6-0.2-1.2-0.5-1.7-0.8
			c-0.2-0.1-0.5-0.4-0.8-0.4c-0.1,0.8-0.4,1.4-0.3,2.3c0.1,0.8,0.4,1.6,0.7,2.3c0.5,1.1,1.2,2.2,2,3.1c1.7,1.8,3.7,2.8,6.3,2.9
			c2.1,0.1,4.5-0.6,6.2-1.8c1.5-1.1,2.6-2.6,3.6-4.2c0.5-0.8,1.1-2.1,1-3.1c0-0.2-0.1-0.5-0.1-0.7S135.6-37.8,135.4-37.8"/>
		<path id="XMLID_19_" class="st5" d="M134.7-36.4c0.2-0.5-0.7-1.3-1-1.6c-0.8-0.9-1.6-1.8-2.6-2.5c-0.9-0.7-1.7-1.4-2.7-1.9
			c-0.6-0.3-1.2-0.4-1.8-0.7c-1,1.5-0.4,3.5-0.5,5.2c-0.2-0.3-0.8-0.6-1.1-0.8c-0.7-0.5-1.6-0.8-2.3-1.1c-0.4-0.2-0.8-0.3-1.2-0.4
			c-0.2-0.1-0.6-0.3-0.9-0.3c-0.3,0.1-0.2,0.6-0.3,0.9c-0.2,1.2,0.1,2.5,0.4,3.7c0.1,0.5,0.2,0.6-0.3,0.4c-0.5-0.2-1-0.4-1.5-0.7
			c-0.2-0.1-0.4-0.3-0.6-0.4c-0.1,0.7-0.4,1.2-0.3,1.9c0.1,0.7,0.3,1.3,0.6,1.9c0.4,1,1,1.9,1.7,2.6c1.4,1.6,3.1,2.4,5.3,2.5
			c1.8,0,3.8-0.5,5.3-1.6c1.3-0.9,2.2-2.2,3.1-3.6c0.4-0.7,0.9-1.8,0.8-2.6c0-0.2-0.1-0.4-0.1-0.6c0-0.2,0.1-0.4,0-0.5"/>
		
			<ellipse id="XMLID_18_" transform="matrix(0.7429 0.6694 -0.6694 0.7429 10.778 -93.3326)" class="st6" cx="126.9" cy="-32.6" rx="5.9" ry="7.7"/>
		<path id="XMLID_17_" class="st7" d="M121.7-27c2.4,2.2-1.6-5.1,1.2-8.2c2.8-3.2,11.5-1,9.1-3.2s-6.7-1.4-9.5,1.7
			C119.6-33.5,119.3-29.2,121.7-27z"/>
		<path id="XMLID_16_" class="st8" d="M120.1-34c2-0.4,4-0.7,6.1-0.6c0.8,0,1.8,0.2,2.5,0.6c0.4,0.2,0.8,0.7,1.3,0.7
			c0-0.5-0.1-1-0.1-1.6c0.1-1.1,0.1-1.9-0.1-3c-0.2-1-0.1-2-0.1-3.1c0-0.4-0.2-1.4,0.2-1.8c0.5,0.2,1.1,0.2,1.6,0.5
			c0.8,0.3,1.4,0.9,1.9,1.5c0.7,0.8,1.6,1.4,2.2,2.3c0.6,0.9,1,1.8,1.1,2.9c0.5,3.7-1.7,7.2-4.5,9.6c-1.5,1.3-2.9,2.4-4.8,2.7
			c-1.5,0.2-2.9-0.1-4.3-0.6c-3-0.9-5.2-3.4-6.4-6.2c-0.5-1.2-0.9-2.4-1.2-3.7c-0.2-0.9-0.6-1.8-0.7-2.8c0.8,1,1.9,1.9,2.9,2.8
			c0.4,0.4,0.9,0.8,1.3,1.2c0.4,0.4,0.9,0.7,1.3,1.1c-0.2-0.9-0.4-1.6-0.4-2.5c0.1,0,0.3-0.1,0.4-0.1"/>
		<path id="XMLID_15_" class="st9" d="M135.4-31.2c0.3-0.3,0.3-0.9,0.3-1.3c0.1-0.9,0.1-1.8-0.1-2.7c-0.2-1.1-0.5-2-1.1-2.9
			c-0.4-0.6-0.9-1.1-1.3-1.7c0,0.4,0.2,0.8,0.3,1.1c0.2,0.7,0.3,1.5,0.5,2.2c0.3,1.4,1.1,3.2,0.9,4.7c-0.1-0.2-0.2-0.5-0.2-0.8
			c-0.1-0.5-0.3-1-0.5-1.5c-0.4-1-1.2-2-2.1-2.7c-0.1,0.3,0.3,0.9,0.4,1.2c0.2,0.7,0.4,1.5,0.6,2.3c0.2,1,0.4,2.1,0.5,3.1
			c-0.4-0.3-0.6-1-0.9-1.3c-0.4-0.6-0.9-1.1-1.5-1.6c0.3,0.7,0.7,1.4,1,2.1c0.2,0.5,0.8,1.2,0.7,1.8c-0.5,0.1-1.4-0.8-1.8-1.1
			c-0.4-0.2-2.2-1.3-2.6-0.8c0.4,0.7,1.5,1.3,2.1,1.8c0.2,0.2,1.3,1,0.6,1.1c-0.2,0-0.6-0.2-0.7-0.2c-0.5-0.2-1-0.4-1.5-0.6
			c-1.6-0.7-3.3-1.1-5-1.6c-0.3-0.1-2.6-1-2.9-0.5c-0.2,0.4,1.4,1.4,1.7,1.6c1,0.8,2.1,1.3,3.2,1.9c0.7,0.3,1.6,0.5,2.2,1
			c-0.3,0.2-0.8,0-1.1,0c-0.8-0.1-1.6-0.2-2.4-0.4c-0.8-0.2-1.5-0.5-2.3-0.7c-0.4-0.1-1.1-0.4-1.4-0.3c0.7,0.7,1.8,1.1,2.7,1.4
			c0.6,0.3,1.3,0.5,2,0.7c0.4,0.1,0.9,0.2,1.3,0.4c-0.3,0.2-0.9,0.1-1.2,0c-0.9-0.1-1.8-0.2-2.7-0.5c-1.2-0.3-2.3-0.7-3.4-1
			c0,0.4,1.8,0.9,2.2,1.1c0.8,0.3,1.6,0.7,2.4,1c1.6,0.5,2.9,0.4,4.5-0.2c1.5-0.6,2.8-1.8,4-2.8c0.9-0.7,1.6-1.7,2.2-2.7
			c0.2-0.3,0.5-0.9,0.7-1"/>
		<path id="XMLID_14_" class="st10" d="M124.7-38c0.4-0.6,1.5-0.9,2.2-1c0.6-0.1,1.5,0.2,0.8,0.9c-0.5,0.6-3.2,1.7-3.8,0.8
			c0.2-0.5,0.7-0.8,1.2-1"/>
		<path id="XMLID_13_" class="st11" d="M135.8-24.9c0.2-1,0.7-9.6-0.9-9.1c-0.3,0.1-0.2,1.5-0.3,1.8c-0.1,0.7-0.2,1.4-0.3,2.1
			c-0.1,0.5-0.2,1.1-0.7,1c-0.6-0.2-1.2-0.9-1.9-1.1c-2-0.6,0.5,2,0.5,2.4c-0.1,0.6-0.9,0.5-1.3,0.5c-0.8,0-1.6-0.2-2.4-0.1
			c-0.7,0.1-0.9,0.5-0.2,0.8c0.3,0.2,1.9,0.6,1.7,1c-0.3,0.4-1.9,0.1-2.4,0.1c-0.8-0.1-1.8-0.4-2.5,0.1c-1.5,0.8,0.2,1.4,1.1,1.7
			c1.3,0.4,2.6,0.5,3.9,0.6c0.6,0.1,1.3,0.1,1.9,0.1c0.5,0.1,1,0.2,1.5,0.2c0.8-0.1,1.3-0.8,1.8-1.3
			C135.5-24.3,135.9-24.6,135.8-24.9"/>
	</g>
</g>
<g id="XMLID_2_">
	<path id="XMLID_10_" class="st4" d="M109.8-25.7c-0.5-0.5-1.7,0.4-2.2,0.6c-1.3,0.6-2.6,1.2-3.7,2.1c-1,0.8-2.1,1.5-3,2.4
		c-0.5,0.5-0.8,1.3-1.4,1.8c1.5,1.7,4,1.8,5.8,2.6c-0.5,0.1-1,0.7-1.3,1c-0.7,0.7-1.4,1.5-2,2.3c-0.3,0.4-0.6,0.9-0.9,1.3
		c-0.2,0.2-0.6,0.6-0.6,0.9c0,0.4,0.6,0.5,1,0.7c1.4,0.7,2.9,0.9,4.4,0.9c0.6,0,0.8,0,0.4,0.5c-0.4,0.5-0.8,1-1.2,1.5
		c-0.2,0.2-0.5,0.4-0.6,0.6c0.8,0.4,1.3,0.9,2.2,1.1c0.8,0.2,1.6,0.1,2.4,0c1.2-0.1,2.5-0.5,3.6-1c2.2-1.1,3.7-2.8,4.5-5.3
		c0.6-2.1,0.6-4.7-0.2-6.8c-0.7-1.8-1.9-3.5-3.2-5c-0.7-0.8-1.8-1.7-2.8-2c-0.2-0.1-0.5-0.1-0.7-0.1c-0.2-0.1-0.4-0.2-0.6-0.2"/>
	<path id="XMLID_9_" class="st5" d="M111-24.5c-0.5-0.4-1.5,0.3-1.8,0.5c-1.1,0.5-2.2,1-3.1,1.8c-0.9,0.7-1.8,1.3-2.6,2.1
		c-0.5,0.5-0.7,1.1-1.1,1.5c1.3,1.5,3.4,1.6,4.9,2.2c-0.4,0.1-0.8,0.6-1.1,0.9c-0.6,0.6-1.2,1.3-1.7,2c-0.3,0.4-0.5,0.7-0.7,1.1
		c-0.1,0.2-0.5,0.5-0.5,0.8s0.5,0.4,0.8,0.6c1.2,0.6,2.5,0.7,3.7,0.8c0.5,0,0.7,0,0.3,0.4c-0.3,0.4-0.6,0.9-1,1.2
		c-0.2,0.2-0.4,0.3-0.5,0.5c0.7,0.3,1.1,0.8,1.8,0.9s1.4,0.1,2.1,0c1.1-0.1,2.1-0.4,3-0.9c1.9-0.9,3.2-2.4,3.8-4.5
		c0.5-1.7,0.5-4-0.2-5.8c-0.6-1.6-1.6-3-2.7-4.2c-0.6-0.7-1.5-1.5-2.4-1.7c-0.2-0.1-0.4-0.1-0.6-0.1C111.2-24.5,111-24.6,111-24.5"
		/>
	
		<ellipse id="XMLID_8_" transform="matrix(0.8509 -0.5254 0.5254 0.8509 24.9456 56.8995)" class="st6" cx="112.7" cy="-15.5" rx="5.9" ry="8.2"/>
	<path id="XMLID_7_" class="st7" d="M117-8.5c2.8-1.7-5.4,0-7.8-3.9c-2.4-3.9,2-11.8-0.8-10.1c-2.8,1.7-3.1,6.2-0.7,10.1
		C110-8.5,114.2-6.8,117-8.5z"/>
	<path id="XMLID_6_" class="st8" d="M109.6-9.1c0.1-2.2,0.3-4.2,1-6.3c0.3-0.8,0.7-1.7,1.2-2.3c0.3-0.4,0.9-0.5,1-1
		c-0.5-0.2-1.1-0.2-1.6-0.5c-1-0.5-1.9-0.7-3-0.9c-1-0.2-2.1-0.5-3-0.9c-0.4-0.2-1.5-0.3-1.7-0.8c0.3-0.5,0.5-1,0.9-1.4
		c0.5-0.7,1.2-1.1,2-1.5c0.9-0.5,1.8-1.1,2.8-1.5c1-0.3,2-0.4,3.1-0.2c3.8,0.7,6.7,4,8.4,7.6c0.9,1.9,1.6,3.7,1.4,5.7
		c-0.1,1.6-0.9,2.9-1.6,4.1c-1.7,2.7-4.7,4.1-7.7,4.4c-1.3,0.1-2.6,0.1-3.9,0c-1-0.1-1.9,0-2.9-0.2c1.2-0.5,2.3-1.3,3.5-2
		c0.5-0.3,1-0.6,1.5-0.9s0.9-0.6,1.4-0.9c-0.9,0-1.7-0.1-2.6-0.5c0-0.1,0-0.3,0-0.4"/>
	<path id="XMLID_5_" class="st9" d="M116.3-23.6c-0.2-0.4-0.8-0.6-1.2-0.7c-0.9-0.4-1.7-0.6-2.7-0.8c-1.1-0.2-2.1-0.2-3.2,0.1
		c-0.7,0.2-1.3,0.5-2,0.7c0.3,0.1,0.8,0.1,1.2,0.1c0.8,0,1.5,0.1,2.3,0.2c1.5,0.1,3.4-0.1,4.9,0.6c-0.2,0.1-0.6,0-0.8,0
		c-0.5-0.1-1,0-1.6,0c-1.1,0.1-2.3,0.6-3.2,1.2c0.3,0.2,0.9,0,1.3,0c0.8,0,1.6,0,2.4,0.2c1.1,0.2,2.2,0.3,3.2,0.5
		c-0.4,0.3-1.1,0.3-1.6,0.5c-0.7,0.2-1.3,0.5-1.9,1c0.8-0.1,1.6-0.2,2.4-0.3c0.6-0.1,1.4-0.3,2-0.1c-0.1,0.5-1.1,1.1-1.5,1.4
		c-0.4,0.4-1.8,1.8-1.4,2.4c0.8-0.2,1.6-1.1,2.3-1.5c0.2-0.2,1.3-1,1.3-0.3c0,0.2-0.3,0.5-0.4,0.6c-0.3,0.4-0.7,0.9-1,1.3
		c-1.1,1.4-1.9,3-2.9,4.5c-0.2,0.3-1.7,2.3-1.2,2.7c0.3,0.4,1.8-0.9,2-1.1c1-0.8,1.8-1.7,2.7-2.6c0.5-0.6,0.9-1.5,1.5-1.9
		c0.1,0.4-0.2,0.8-0.3,1.1c-0.3,0.8-0.6,1.6-1,2.3c-0.4,0.7-0.8,1.4-1.3,2.1c-0.2,0.3-0.7,0.9-0.7,1.3c0.9-0.4,1.5-1.4,2.1-2.2
		c0.4-0.6,0.9-1.1,1.2-1.7c0.2-0.4,0.4-0.8,0.8-1.1c0.1,0.4-0.1,0.9-0.3,1.2c-0.3,0.9-0.7,1.8-1.1,2.6c-0.6,1.1-1.2,2.1-1.8,3.1
		c0.4,0.1,1.4-1.5,1.6-1.8c0.5-0.7,1.1-1.4,1.6-2.1c0.9-1.4,1.2-2.7,1-4.5c-0.2-1.7-1.1-3.3-1.7-4.9c-0.4-1.1-1.3-2.2-2.1-3
		c-0.2-0.3-0.8-0.8-0.8-1.1"/>
	<path id="XMLID_4_" class="st10" d="M106.9-15.1c-0.5-0.6-0.5-1.8-0.5-2.5c0.1-0.7,0.6-1.4,1.1-0.5c0.4,0.7,0.8,3.8-0.2,4.1
		c-0.5-0.3-0.6-1-0.7-1.5"/>
	<path id="XMLID_3_" class="st11" d="M122.7-21.9c-0.9-0.5-9.3-3.8-9.2-2.1c0,0.4,1.4,0.7,1.7,0.9c0.7,0.3,1.4,0.6,2,1
		c0.4,0.2,1,0.5,0.8,1c-0.3,0.6-1.2,0.9-1.5,1.5c-1.1,1.8,2.1,0.1,2.5,0.3c0.6,0.3,0.2,1.1,0.1,1.5c-0.2,0.8-0.6,1.5-0.7,2.4
		c-0.1,0.7,0.2,1,0.8,0.5c0.3-0.3,1.1-1.7,1.4-1.3c0.4,0.4-0.4,2-0.5,2.4c-0.3,0.7-0.8,1.7-0.6,2.6c0.5,1.7,1.5,0.2,1.9-0.5
		c0.7-1.2,1.2-2.4,1.6-3.7c0.2-0.6,0.4-1.3,0.6-1.9c0.2-0.5,0.5-0.9,0.5-1.5c0.1-0.8-0.4-1.5-0.9-2.2
		C123.1-21.4,123-21.9,122.7-21.9"/>
</g>
</svg>
